0
SECTION
2
HEADER
9
$INSUNITS
70
4
9
$ACADVER
1
AC1014
9
$HANDSEED
5
FFFF
0
ENDSEC
0
SECTION
2
TABLES
0
TABLE
2
VPORT
5
8
100
AcDbSymbolTable
0
ENDTAB
0
TABLE
2
LTYPE
5
5
100
AcDbSymbolTable
0
LTYPE
5
14
100
AcDbSymbolTableRecord
100
AcDbLinetypeTableRecord
2
BYBLOCK
70
0
0
LTYPE
5
15
100
AcDbSymbolTableRecord
100
AcDbLinetypeTableRecord
2
BYLAYER
70
0
0
ENDTAB
0
TABLE
2
LAYER
5
2
100
AcDbSymbolTable
70
2
0
LAYER
5
50
100
AcDbSymbolTableRecord
100
AcDbLayerTableRecord
2
0
70
0
6
CONTINUOUS
0
ENDTAB
0
TABLE
2
STYLE
5
3
100
AcDbSymbolTable
70
1
0
STYLE
5
11
100
AcDbSymbolTableRecord
100
AcDbTextStyleTableRecord
2
STANDARD
70
0
0
ENDTAB
0
TABLE
2
VIEW
5
6
100
AcDbSymbolTable
70
0
0
ENDTAB
0
TABLE
2
UCS
5
7
100
AcDbSymbolTable
70
0
0
ENDTAB
0
TABLE
2
APPID
5
9
100
AcDbSymbolTable
70
2
0
APPID
5
12
100
AcDbSymbolTableRecord
100
AcDbRegAppTableRecord
2
ACAD
70
0
0
ENDTAB
0
TABLE
2
DIMSTYLE
5
A
100
AcDbSymbolTable
70
1
0
ENDTAB
0
TABLE
2
BLOCK_RECORD
5
1
100
AcDbSymbolTable
70
1
0
BLOCK_RECORD
5
1F
100
AcDbSymbolTableRecord
100
AcDbBlockTableRecord
2
*MODEL_SPACE
0
BLOCK_RECORD
5
1B
100
AcDbSymbolTableRecord
100
AcDbBlockTableRecord
2
*PAPER_SPACE
0
ENDTAB
0
ENDSEC
0
SECTION
2
BLOCKS
0
BLOCK
5
20
100
AcDbEntity
100
AcDbBlockBegin
2
*MODEL_SPACE
0
ENDBLK
5
21
100
AcDbEntity
100
AcDbBlockEnd
0
BLOCK
5
1C
100
AcDbEntity
100
AcDbBlockBegin
2
*PAPER_SPACE
0
ENDBLK
5
1D
100
AcDbEntity
100
AcDbBlockEnd
0
ENDSEC
0
SECTION
2
ENTITIES
0
LWPOLYLINE
5
100
100
AcDbEntity
8
0
100
AcDbPolyline
90
8
70
1
43
0.0
10
216.05000000000004
20
-64.150000000000006
42
0.41421356237309503
10
216.55000000000004
20
-63.650000000000006
10
216.55000000000001
20
-50.650000000000006
42
0.41421356237309503
10
216.05000000000004
20
-50.150000000000006
10
203.05000000000004
20
-50.150000000000006
42
0.41421356237309503
10
202.55000000000001
20
-50.650000000000006
10
202.55000000000001
20
-63.650000000000006
42
0.41421356237309503
10
203.05000000000004
20
-64.150000000000006
0
LWPOLYLINE
5
101
100
AcDbEntity
8
0
100
AcDbPolyline
90
8
70
1
43
0.0
10
198.28749999999999
20
-88.250000000000014
42
0.41421356237309503
10
197.78750000000002
20
-88.75
10
197.78750000000002
20
-101.75
42
0.41421356237309503
10
198.28749999999999
20
-102.25000000000001
10
211.28749999999999
20
-102.25000000000001
42
0.41421356237309503
10
211.78750000000002
20
-101.75
10
211.78750000000002
20
-88.75
42
0.41421356237309503
10
211.28749999999999
20
-88.250000000000014
0
LWPOLYLINE
5
102
100
AcDbEntity
8
0
100
AcDbPolyline
90
8
70
1
43
0.0
10
188.76249999999999
20
-69.200000000000003
42
0.41421356237309503
10
188.26249999999999
20
-69.700000000000003
10
188.26249999999999
20
-82.700000000000017
42
0.41421356237309503
10
188.76249999999999
20
-83.200000000000017
10
201.76249999999999
20
-83.200000000000017
42
0.41421356237309503
10
202.26249999999999
20
-82.700000000000017
10
202.26249999999999
20
-69.700000000000003
42
0.41421356237309503
10
201.76249999999999
20
-69.200000000000003
0
LWPOLYLINE
5
103
100
AcDbEntity
8
0
100
AcDbPolyline
90
8
70
1
43
0.0
10
226.86250000000001
20
-83.200000000000003
10
239.86250000000001
20
-83.200000000000003
42
0.41421356237309503
10
240.36250000000001
20
-82.700000000000017
10
240.36250000000001
20
-69.700000000000003
42
0.41421356237309503
10
239.86250000000001
20
-69.200000000000003
10
226.86250000000001
20
-69.200000000000003
42
0.41421356237309503
10
226.36250000000001
20
-69.700000000000003
10
226.36250000000001
20
-82.700000000000017
42
0.41421356237309503
0
LWPOLYLINE
5
104
100
AcDbEntity
8
0
100
AcDbPolyline
90
8
70
1
43
0.0
10
260.46249999999998
20
-64.150000000000006
10
260.96249999999998
20
-64.150000000000006
42
0.41421356237309503
10
261.46249999999998
20
-63.650000000000006
10
261.46249999999998
20
-50.650000000000006
42
0.41421356237309503
10
260.96249999999998
20
-50.150000000000006
10
260.46249999999998
20
-50.150000000000006
42
0.41421356237309503
10
259.96249999999998
20
-50.650000000000006
10
259.96249999999998
20
-63.650000000000006
42
0.41421356237309503
0
LWPOLYLINE
5
105
100
AcDbEntity
8
0
100
AcDbPolyline
90
8
70
1
43
0.0
10
117.32500000000002
20
-31.100000000000001
10
130.32499999999999
20
-31.099999999999994
42
-0.41421356237309503
10
130.82499999999999
20
-31.600000000000001
10
130.82499999999999
20
-44.600000000000001
42
-0.41421356237309503
10
130.32499999999999
20
-45.099999999999994
10
117.32500000000002
20
-45.100000000000009
42
-0.41421356237309503
10
116.82500000000002
20
-44.600000000000001
10
116.82500000000002
20
-31.600000000000001
42
-0.41421356237309503
0
LWPOLYLINE
5
106
100
AcDbEntity
8
0
100
AcDbPolyline
90
24
70
1
43
0.0
10
272.75675000000001
20
-84.700000000000003
42
0.41421356237309503
10
273.25675000000001
20
-85.200000000000017
10
280.34375000073686
20
-85.199999989560652
42
0.41421356194163483
10
280.84375000000034
20
-84.699999989560609
10
280.84990334840546
20
-50.65009035777733
42
0.41426649372393554
10
280.34990335656965
20
-50.150000000000006
10
264.96249999999998
20
-50.150000000000006
42
0.41421356237309503
10
264.46249999999998
20
-50.650000000000006
10
264.46249999999998
20
-68.700000000000017
42
-0.41421356237313145
10
263.96249999999998
20
-69.200000000000003
10
245.91250000000002
20
-69.200000000000003
42
0.41421356237309503
10
245.41250000000002
20
-69.700000000000003
10
245.41250000000002
20
-82.700000000000017
42
0.41421356237309503
10
245.91250000000002
20
-83.200000000000017
10
248.38075000000001
20
-83.200000000000017
42
-0.41421356237309503
10
248.88075000000001
20
-83.700000000000031
10
248.88075000000001
20
-84.700000000000003
42
0.41421356237309503
10
249.38075000000001
20
-85.200000000000017
10
255.38075000000003
20
-85.200000000000017
42
0.41421356237309503
10
255.88075000000003
20
-84.700000000000003
10
255.88075000000006
20
-83.668095648387492
42
-0.41420460089676553
10
256.38073470175465
20
-83.168095648621559
10
272.25673470175462
20
-83.167609898731811
42
-0.41422252390615932
10
272.75675000000007
20
-83.667609898497801
0
LWPOLYLINE
5
107
100
AcDbEntity
8
0
100
AcDbPolyline
90
8
70
1
43
0.0
10
68.912499999999994
20
-69.700000000000003
42
0.41421356237309503
10
68.412499999999994
20
-69.200000000000003
10
55.412500000000009
20
-69.200000000000003
42
0.41421356237309503
10
54.912500000000009
20
-69.700000000000003
10
54.912500000000009
20
-82.700000000000017
42
0.41421356237309503
10
55.412500000000009
20
-83.200000000000017
10
68.412499999999994
20
-83.200000000000017
42
0.41421356237309503
10
68.912499999999994
20
-82.700000000000017
0
LWPOLYLINE
5
108
100
AcDbEntity
8
0
100
AcDbPolyline
90
8
70
1
43
0.0
10
183.5
20
-63.650000000000006
42
0.41421356237309503
10
184.00000000000003
20
-64.150000000000006
10
197.00000000000003
20
-64.150000000000006
42
0.41421356237309503
10
197.5
20
-63.650000000000006
10
197.5
20
-50.650000000000006
42
0.41421356237309503
10
197.00000000000003
20
-50.150000000000006
10
184.00000000000003
20
-50.150000000000006
42
0.41421356237309503
10
183.5
20
-50.650000000000006
0
LWPOLYLINE
5
109
100
AcDbEntity
8
0
100
AcDbPolyline
90
8
70
1
43
0.0
10
22.074999999999999
20
-45.100000000000009
10
35.075000000000003
20
-45.100000000000009
42
0.41421356237309503
10
35.575000000000003
20
-44.600000000000001
10
35.575000000000003
20
-31.600000000000001
42
0.41421356237309503
10
35.075000000000003
20
-31.100000000000001
10
22.074999999999999
20
-31.100000000000001
42
0.41421356237309503
10
21.575000000000003
20
-31.600000000000001
10
21.575000000000003
20
-44.600000000000001
42
0.41421356237309503
0
LWPOLYLINE
5
110
100
AcDbEntity
8
0
100
AcDbPolyline
90
8
70
1
43
0.0
10
281.96249999999998
20
-64.150000000000006
10
282.46249999999998
20
-64.150000000000006
42
0.41421356237309503
10
282.96249999999998
20
-63.650000000000006
10
282.96249999999998
20
-50.650000000000006
42
0.41421356237309503
10
282.46249999999998
20
-50.150000000000006
10
281.96249999999998
20
-50.150000000000006
42
0.41421356237309503
10
281.46249999999998
20
-50.650000000000006
10
281.46249999999998
20
-63.650000000000006
42
0.41421356237309503
0
LWPOLYLINE
5
111
100
AcDbEntity
8
0
100
AcDbPolyline
90
8
70
1
43
0.0
10
207.8125
20
-69.200000000000003
10
220.8125
20
-69.200000000000003
42
-0.41421356237309503
10
221.3125
20
-69.700000000000003
10
221.3125
20
-82.700000000000017
42
-0.41421356237309503
10
220.8125
20
-83.200000000000017
10
207.8125
20
-83.199999999999989
42
-0.41421356237309503
10
207.31250000000003
20
-82.700000000000017
10
207.3125
20
-69.700000000000003
42
-0.41421356237309503
0
LWPOLYLINE
5
112
100
AcDbEntity
8
0
100
AcDbPolyline
90
8
70
1
43
0.0
10
192.73750000000004
20
-88.75
10
192.73750000000004
20
-101.75
42
-0.41421356237309503
10
192.23750000000001
20
-102.25000000000001
10
179.23750000000001
20
-102.25000000000001
42
-0.41421356237309503
10
178.73750000000001
20
-101.75
10
178.73750000000001
20
-88.75
42
-0.41421356237309503
10
179.23750000000001
20
-88.250000000000014
10
192.23750000000001
20
-88.25
42
-0.41421356237309503
0
LWPOLYLINE
5
113
100
AcDbEntity
8
0
100
AcDbPolyline
90
8
70
1
43
0.0
10
245.12500000000003
20
-47.374999999999979
10
245.12500000000003
20
-47.875000000000028
42
-0.41421356237310025
10
244.62500000000006
20
-48.375000000000014
10
3.0250000000000199
20
-48.374999999999993
42
-0.41421356237311519
10
2.5249999999999999
20
-47.875000000000021
10
2.5249999999999972
20
-47.374999999999979
42
-0.41421356237309664
10
3.0249999999999715
20
-46.875000000000007
10
244.62500000000006
20
-46.875
42
-0.41421356237310025
0
LWPOLYLINE
5
114
100
AcDbEntity
8
0
100
AcDbPolyline
90
8
70
1
43
0.0
10
266.55624999999998
20
-88.75
42
0.41421356237309503
10
266.05624999999998
20
-88.25
10
253.05625000000003
20
-88.250000000000014
42
0.41421356237309503
10
252.55625000000003
20
-88.75
10
252.55625000000003
20
-101.75
42
0.41421356237309503
10
253.05625000000003
20
-102.25000000000001
10
266.05624999999998
20
-102.25000000000001
42
0.41421356237309503
10
266.55624999999998
20
-101.75
0
LWPOLYLINE
5
115
100
AcDbEntity
8
0
100
AcDbPolyline
90
8
70
1
43
0.0
10
59.387500000000003
20
-88.75
42
0.41421356237309503
10
58.88750000000001
20
-88.250000000000014
10
45.887500000000003
20
-88.250000000000014
42
0.41421356237309503
10
45.387500000000003
20
-88.75
10
45.387500000000003
20
-101.75
42
0.41421356237309503
10
45.887500000000003
20
-102.25000000000001
10
58.88750000000001
20
-102.25000000000001
42
0.41421356237309503
10
59.387500000000003
20
-101.75
0
LWPOLYLINE
5
116
100
AcDbEntity
8
0
100
AcDbPolyline
90
8
70
1
43
0.0
10
187.97499999999999
20
-31.600000000000009
10
187.97499999999997
20
-44.600008317674813
42
-0.4125272390893634
10
187.47788041249953
20
-45.100000000000009
10
174.47500000000002
20
-45.100000000000009
42
-0.41421356237309503
10
173.97500000000002
20
-44.600000000000001
10
173.97500000000002
20
-31.600000000000001
42
-0.41421356237309503
10
174.47500000000002
20
-31.100000000000001
10
187.47499999999999
20
-31.100000000000001
42
-0.41421356237309503
0
LWPOLYLINE
5
117
100
AcDbEntity
8
0
100
AcDbPolyline
90
8
70
1
43
0.0
10
222.10000000000002
20
-64.150000000000006
10
235.10000000000002
20
-64.150000000000006
42
0.41421356237309503
10
235.60000000000002
20
-63.650000000000006
10
235.60000000000002
20
-50.650000000000006
42
0.41421356237309503
10
235.10000000000002
20
-50.150000000000006
10
222.10000000000002
20
-50.150000000000006
42
0.41421356237309503
10
221.59999999999999
20
-50.650000000000006
10
221.59999999999999
20
-63.650000000000006
42
0.41421356237309503
0
LWPOLYLINE
5
118
100
AcDbEntity
8
0
100
AcDbPolyline
90
8
70
1
43
0.0
10
203.52500000000003
20
-105.79999999999998
42
0.41421356237309503
10
203.02500000000003
20
-105.29999999999998
10
197.02500000000001
20
-105.29999999999998
42
0.41421356237309503
10
196.52500000000001
20
-105.79999999999998
10
196.52500000000001
20
-119.79999999999998
42
0.41421356237309503
10
197.02500000000001
20
-120.3
10
203.02500000000003
20
-120.3
42
0.41421356237309503
10
203.52500000000003
20
-119.79999999999998
0
LWPOLYLINE
5
119
100
AcDbEntity
8
0
100
AcDbPolyline
90
8
70
1
43
0.0
10
184.875
20
-111.52500000000002
10
184.875
20
-113.52500000000001
42
-0.41421356237308815
10
181.875
20
-116.52500000000002
10
157.875
20
-116.52500000000002
42
-0.41421356237308815
10
154.875
20
-113.52500000000001
10
154.875
20
-111.52500000000002
42
-0.41421356237308815
10
157.875
20
-108.52500000000001
10
181.875
20
-108.52500000000001
42
-0.41421356237308815
0
LWPOLYLINE
5
120
100
AcDbEntity
8
0
100
AcDbPolyline
90
8
70
1
43
0.0
10
4.2874999999999996
20
-50.650000000000006
10
4.2874999999999988
20
-63.650000000000006
42
-0.41421356237309503
10
3.7875000000000005
20
-64.150000000000006
10
3.2875000000000005
20
-64.150000000000006
42
-0.41421356237309503
10
2.7875000000000005
20
-63.650000000000006
10
2.7875000000000023
20
-50.650000000000006
42
-0.41421356237309503
10
3.2875000000000005
20
-50.150000000000006
10
3.7875000000000005
20
-50.150000000000006
42
-0.41421356237309503
0
LWPOLYLINE
5
121
100
AcDbEntity
8
0
100
AcDbPolyline
90
8
70
1
43
0.0
10
226.07500000000002
20
-31.600000000000001
10
226.07500000000002
20
-44.600000000000001
42
-0.41421356237309503
10
225.57500000000002
20
-45.100000000000009
10
212.57499999999999
20
-45.100000000000009
42
-0.41421356237309503
10
212.07499999999999
20
-44.600000000000001
10
212.07499999999999
20
-31.600000000000001
42
-0.41421356237309503
10
212.57499999999999
20
-31.100000000000001
10
225.57500000000002
20
-31.099999999999994
42
-0.41421356237309503
0
LWPOLYLINE
5
122
100
AcDbEntity
8
0
100
AcDbPolyline
90
8
70
1
43
0.0
10
193.02500000000003
20
-31.600000000000001
10
193.02500000000003
20
-44.600000000000001
42
0.41421356237309503
10
193.52500000000003
20
-45.099999999999994
10
206.52500000000003
20
-45.099999999999994
42
0.41421356237309503
10
207.02500000000001
20
-44.600000000000001
10
207.02500000000001
20
-31.600000000000001
42
0.41421356237309503
10
206.52500000000003
20
-31.100000000000001
10
193.52500000000003
20
-31.100000000000001
42
0.41421356237309503
0
LWPOLYLINE
5
123
100
AcDbEntity
8
0
100
AcDbPolyline
90
8
70
1
43
0.0
10
277.45618680790363
20
-88.250000000000014
42
0.33163264173853924
10
276.97146443708948
20
-88.59943751271345
10
276.97146443708948
20
-101.57985476223345
42
0.52000953670302941
10
277.44166715639716
20
-102.25000000000001
10
306.58749999999998
20
-102.25000000000001
42
0.41421356237309503
10
307.08750000000003
20
-101.75
10
307.08750000000003
20
-88.75
42
0.41421356237309503
10
306.58749999999998
20
-88.250000000000014
0
LWPOLYLINE
5
124
100
AcDbEntity
8
0
100
AcDbPolyline
90
8
70
1
43
0.0
10
254.65000000000003
20
-66.424999999999969
10
254.65000000000003
20
-66.92500000000004
42
-0.41421356237310025
10
254.15000000000006
20
-67.425000000000011
10
3.2874999999999233
20
-67.425000000000011
42
-0.41421356237307033
10
2.7874999999999939
20
-66.92500000000004
10
2.7874999999999952
20
-66.424999999999969
42
-0.41421356237309664
10
3.2874999999999694
20
-65.924999999999997
10
254.15000000000006
20
-65.924999999999997
42
-0.41421356237310025
0
LWPOLYLINE
5
125
100
AcDbEntity
8
0
100
AcDbPolyline
90
8
70
1
43
0.0
10
78.4375
20
-88.75
42
0.41421356237309503
10
77.9375
20
-88.250000000000014
10
64.9375
20
-88.250000000000014
42
0.41421356237309503
10
64.4375
20
-88.75
10
64.4375
20
-101.75
42
0.41421356237309503
10
64.9375
20
-102.25000000000001
10
77.9375
20
-102.25000000000001
42
0.41421356237309503
10
78.4375
20
-101.75
0
LWPOLYLINE
5
126
100
AcDbEntity
8
0
100
AcDbPolyline
90
8
70
1
43
0.0
10
230.33750000000003
20
-105.52500000000001
10
207.07499999999999
20
-105.52500000000001
42
-0.41421356237311585
10
206.57499999999999
20
-105.02500000000003
10
206.57500000000002
20
-104.52499999999999
42
-0.41421356237311585
10
207.07499999999999
20
-104.02500000000005
10
230.33750000000003
20
-104.02500000000002
42
-0.41421356237309503
10
230.83750000000003
20
-104.52499999999999
10
230.83750000000003
20
-105.02500000000003
42
-0.41421356237309503
0
LWPOLYLINE
5
127
100
AcDbEntity
8
0
100
AcDbPolyline
90
8
70
1
43
0.0
10
31.100000000000001
20
-50.650000000000006
10
31.100000000000001
20
-63.650000000000006
42
0.41421356237309503
10
31.600000000000001
20
-64.150000000000006
10
44.600000000000001
20
-64.150000000000006
42
0.41421356237309503
10
45.100000000000009
20
-63.650000000000006
10
45.100000000000009
20
-50.650000000000006
42
0.41421356237309503
10
44.600000000000001
20
-50.150000000000006
10
31.600000000000001
20
-50.150000000000006
42
0.41421356237309503
0
LWPOLYLINE
5
128
100
AcDbEntity
8
0
100
AcDbPolyline
90
8
70
1
43
0.0
10
63.650000000000006
20
-64.150000000000006
42
0.41421356237309503
10
64.150000000000006
20
-63.650000000000006
10
64.150000000000006
20
-50.650000000000006
42
0.41421356237309503
10
63.650000000000006
20
-50.150000000000006
10
50.650000000000006
20
-50.150000000000006
42
0.41421356237309503
10
50.150000000000006
20
-50.650000000000006
10
50.150000000000006
20
-63.650000000000006
42
0.41421356237309503
10
50.650000000000006
20
-64.150000000000006
0
LWPOLYLINE
5
129
100
AcDbEntity
8
0
100
AcDbPolyline
90
8
70
1
43
0.0
10
31.600000000000001
20
-107.30000000000001
10
44.600000000000001
20
-107.30000000000001
42
-0.41421356237309503
10
45.100000000000009
20
-107.80000000000001
10
45.100000000000009
20
-120.8
42
-0.41421356237309503
10
44.600000000000001
20
-121.30000000000001
10
31.600000000000001
20
-121.29999999999998
42
-0.41421356237309503
10
31.100000000000001
20
-120.8
10
31.099999999999994
20
-107.80000000000001
42
-0.41421356237309503
0
LWPOLYLINE
5
130
100
AcDbEntity
8
0
100
AcDbPolyline
90
8
70
1
43
0.0
10
73.962500000000006
20
-69.700000000000003
10
73.962500000000006
20
-82.700000000000017
42
0.41421356237309503
10
74.462500000000006
20
-83.200000000000003
10
87.46250000000002
20
-83.200000000000003
42
0.41421356237309503
10
87.96250000000002
20
-82.700000000000017
10
87.96250000000002
20
-69.700000000000003
42
0.41421356237309503
10
87.46250000000002
20
-69.200000000000003
10
74.462500000000006
20
-69.200000000000003
42
0.41421356237309503
0
LWPOLYLINE
5
131
100
AcDbEntity
8
0
100
AcDbPolyline
90
8
70
1
43
0.0
10
111.77500000000002
20
-31.600000000000001
42
0.41421356237309503
10
111.27500000000001
20
-31.100000000000001
10
98.275000000000006
20
-31.100000000000001
42
0.41421356237309503
10
97.775000000000006
20
-31.600000000000001
10
97.77500000000002
20
-44.600000000000001
42
0.41421356237309503
10
98.275000000000006
20
-45.100000000000009
10
111.27500000000001
20
-45.100000000000009
42
0.41421356237309503
10
111.77500000000002
20
-44.600000000000001
0
LWPOLYLINE
5
132
100
AcDbEntity
8
0
100
AcDbPolyline
90
8
70
1
43
0.0
10
268.49425000000002
20
-89.25
42
0.41421356237309503
10
267.99425000000002
20
-89.75
10
267.99425000000002
20
-103.75
42
0.41421356237309503
10
268.49425000000002
20
-104.25
10
274.49425000000008
20
-104.25
42
0.41421356237309503
10
274.99425000000008
20
-103.75
10
274.99425000000002
20
-89.75
42
0.41421356237309503
10
274.49425000000008
20
-89.25
0
LWPOLYLINE
5
133
100
AcDbEntity
8
0
100
AcDbPolyline
90
8
70
1
43
0.0
10
244.62500000000003
20
-45.100000000000009
42
0.41421356237309503
10
245.12500000000003
20
-44.600000000000001
10
245.12500000000003
20
-31.600000000000001
42
0.41421356237309503
10
244.62500000000003
20
-31.100000000000001
10
231.625
20
-31.100000000000001
42
0.41421356237309503
10
231.125
20
-31.600000000000001
10
231.125
20
-44.600000000000001
42
0.41421356237309503
10
231.625
20
-45.100000000000009
0
LWPOLYLINE
5
134
100
AcDbEntity
8
0
100
AcDbPolyline
90
8
70
1
43
0.0
10
73.674999999999997
20
-31.600000000000001
42
0.41421356237309503
10
73.174999999999997
20
-31.100000000000001
10
60.174999999999997
20
-31.100000000000001
42
0.41421356237309503
10
59.675000000000004
20
-31.600000000000001
10
59.675000000000004
20
-44.600000000000001
42
0.41421356237309503
10
60.174999999999997
20
-45.100000000000009
10
73.174999999999997
20
-45.100000000000009
42
0.41421356237309503
10
73.674999999999997
20
-44.600000000000001
0
ARC
5
135
100
AcDbEntity
8
0
100
AcDbCircle
10
250.67500000000001
20
-44.600000000000001
30
0
40
0.50000000000000711
210
0
220
0
230
1
100
AcDbArc
50
180
51
270
0
LWPOLYLINE
5
136
100
AcDbEntity
8
0
100
AcDbPolyline
90
8
70
1
43
0.0
10
36.362499999999997
20
-69.200000000000003
10
49.362500000000004
20
-69.200000000000003
42
-0.41421356237309503
10
49.862499999999997
20
-69.700000000000003
10
49.862500000000011
20
-82.700000000000017
42
-0.41421356237309503
10
49.362500000000004
20
-83.200000000000017
10
36.362499999999997
20
-83.200000000000003
42
-0.41421356237309503
10
35.862500000000004
20
-82.700000000000017
10
35.862500000000004
20
-69.700000000000003
42
-0.41421356237309503
0
LWPOLYLINE
5
137
100
AcDbEntity
8
0
100
AcDbPolyline
90
8
70
1
43
0.0
10
92.724999999999994
20
-31.600000000000001
10
92.725000000000009
20
-44.600000000000001
42
-0.41421356237309503
10
92.224999999999994
20
-45.100000000000009
10
79.224999999999994
20
-45.099999999999994
42
-0.41421356237309503
10
78.724999999999994
20
-44.600000000000001
10
78.724999999999994
20
-31.600000000000001
42
-0.41421356237309503
10
79.224999999999994
20
-31.100000000000001
10
92.224999999999994
20
-31.100000000000012
42
-0.41421356237309503
0
LWPOLYLINE
5
138
100
AcDbEntity
8
0
100
AcDbPolyline
90
8
70
1
43
0.0
10
193.47500000000002
20
-104.52500000000002
10
193.47500000000002
20
-105.02500000000001
42
-0.41421356237303258
10
192.97499999999999
20
-105.52500000000002
10
92.775000000000034
20
-105.52500000000001
42
-0.41421356237306384
10
92.275000000000006
20
-105.02499999999999
10
92.275000000000006
20
-104.52500000000002
42
-0.4142135623730534
10
92.77500000000002
20
-104.02500000000002
10
192.97499999999999
20
-104.02500000000001
42
-0.4142135623730846
0
LWPOLYLINE
5
139
100
AcDbEntity
8
0
100
AcDbPolyline
90
8
70
1
43
0.0
10
183.21250000000003
20
-69.700000000000003
42
0.41421356237309503
10
182.71250000000003
20
-69.200000000000003
10
169.71250000000001
20
-69.200000000000003
42
0.41421356237309503
10
169.21250000000001
20
-69.700000000000003
10
169.21250000000001
20
-82.700000000000017
42
0.41421356237309503
10
169.71250000000001
20
-83.200000000000003
10
182.71250000000003
20
-83.200000000000017
42
0.41421356237309503
10
183.21250000000003
20
-82.700000000000017
0
LWPOLYLINE
5
140
100
AcDbEntity
8
0
100
AcDbPolyline
90
8
70
1
43
0.0
10
240.65000000000001
20
-63.650000000000006
42
0.41421356237309503
10
241.15000000000003
20
-64.150000000000006
10
254.15000000000003
20
-64.150000000000006
42
0.41421356237309503
10
254.65000000000003
20
-63.650000000000006
10
254.65000000000003
20
-50.650000000000006
42
0.41421356237309503
10
254.15000000000003
20
-50.150000000000006
10
241.15000000000003
20
-50.150000000000006
42
0.41421356237309503
10
240.65000000000001
20
-50.650000000000006
0
LWPOLYLINE
5
141
100
AcDbEntity
8
0
100
AcDbPolyline
90
8
70
1
43
0.0
10
347.66250000000008
20
-123.32500000000003
10
347.66250000000008
20
-5.2624999999999922
42
0.41421356237323875
10
347.16250000000002
20
-4.7625000000000011
10
0.5
20
-4.7625000000000011
42
0.41421356237309082
10
2.0816681711721685e-16
20
-5.2624999999999922
10
0
20
-123.32500000000003
42
0.41421356237309659
10
0.4999999999999713
20
-123.825
10
347.16250000000008
20
-123.82500000000002
42
0.4142135623730222
0
LINE
5
142
100
AcDbEntity
8
0
100
AcDbLine
10
250.67500000000001
20
-45.100000000000009
30
0
11
250.76200056926669
21
-45.100000099052821
31
0
0
LWPOLYLINE
5
143
100
AcDbEntity
8
0
100
AcDbPolyline
90
8
70
1
43
0.0
10
69.200000000000003
20
-63.650000000000006
42
0.41421356237309503
10
69.700000000000003
20
-64.150000000000006
10
82.700000000000017
20
-64.150000000000006
42
0.41421356237309503
10
83.200000000000003
20
-63.650000000000006
10
83.200000000000003
20
-50.650000000000006
42
0.41421356237309503
10
82.700000000000017
20
-50.150000000000006
10
69.700000000000003
20
-50.150000000000006
42
0.41421356237309503
10
69.200000000000003
20
-50.650000000000006
0
LWPOLYLINE
5
144
100
AcDbEntity
8
0
100
AcDbPolyline
90
8
70
1
43
0.0
10
217.33750000000001
20
-107.30000000000001
42
0.41421356237309503
10
216.83750000000003
20
-107.80000000000001
10
216.83750000000003
20
-120.8
42
0.41421356237309503
10
217.33750000000001
20
-121.30000000000001
10
230.33750000000001
20
-121.30000000000001
42
0.41421356237309503
10
230.83750000000003
20
-120.8
10
230.83750000000003
20
-107.80000000000001
42
0.41421356237309503
10
230.33750000000001
20
-107.30000000000001
0
LWPOLYLINE
5
145
100
AcDbEntity
8
0
100
AcDbPolyline
90
8
70
1
43
0.0
10
264.96249999999998
20
-107.30000000000001
42
0.41421356237309503
10
264.46249999999998
20
-107.80000000000001
10
264.46249999999998
20
-120.8
42
0.41421356237309503
10
264.96249999999998
20
-121.30000000000001
10
277.96249999999998
20
-121.30000000000001
42
0.41421356237309503
10
278.46250000000003
20
-120.8
10
278.46249999999998
20
-107.80000000000001
42
0.41421356237309503
10
277.96249999999998
20
-107.30000000000001
0
LWPOLYLINE
5
146
100
AcDbEntity
8
0
100
AcDbPolyline
90
8
70
1
43
0.0
10
212.83750000000001
20
-107.30000000000001
10
213.33750000000003
20
-107.30000000000001
42
-0.41421356237309503
10
213.83750000000003
20
-107.80000000000001
10
213.83750000000003
20
-120.8
42
-0.41421356237309503
10
213.33750000000003
20
-121.30000000000001
10
212.83750000000001
20
-121.30000000000001
42
-0.41421356237309503
10
212.33750000000001
20
-120.8
10
212.33750000000001
20
-107.80000000000001
42
-0.41421356237309503
0
LWPOLYLINE
5
147
100
AcDbEntity
8
0
100
AcDbPolyline
90
8
70
1
43
0.0
10
260.96249999999998
20
-121.30000000000001
42
0.41421356237309503
10
261.46249999999998
20
-120.8
10
261.46249999999998
20
-107.80000000000001
42
0.41421356237309503
10
260.96249999999998
20
-107.30000000000001
10
260.46249999999998
20
-107.30000000000001
42
0.41421356237309503
10
259.96249999999998
20
-107.80000000000001
10
259.96249999999998
20
-120.8
42
0.41421356237309503
10
260.46249999999998
20
-121.30000000000001
0
LINE
5
148
100
AcDbEntity
8
0
100
AcDbLine
10
251.26200000000136
20
-45.600000099053133
30
0
11
251.262
21
-46.600000000000001
31
0
0
LWPOLYLINE
5
149
100
AcDbEntity
8
0
100
AcDbPolyline
90
8
70
1
43
0.0
10
3.0249999999999999
20
-31.100000000000001
42
0.41421356237309503
10
2.5249999999999999
20
-31.600000000000001
10
2.5249999999999999
20
-44.600000000000001
42
0.41421356237309503
10
3.0249999999999999
20
-45.100000000000009
10
16.024999999999999
20
-45.100000000000009
42
0.41421356237309503
10
16.524999999999999
20
-44.600000000000001
10
16.525000000000002
20
-31.600000000000001
42
0.41421356237309503
10
16.024999999999999
20
-31.100000000000001
0
LWPOLYLINE
5
150
100
AcDbEntity
8
0
100
AcDbPolyline
90
8
70
1
43
0.0
10
126.85000000000001
20
-50.150000000000006
10
139.84999999999999
20
-50.149999999999999
42
-0.41421356237309503
10
140.34999999999999
20
-50.650000000000006
10
140.34999999999999
20
-63.650000000000006
42
-0.41421356237309503
10
139.84999999999999
20
-64.150000000000006
10
126.85000000000001
20
-64.150000000000006
42
-0.41421356237309503
10
126.34999999999999
20
-63.650000000000006
10
126.35000000000002
20
-50.650000000000006
42
-0.41421356237309503
0
LWPOLYLINE
5
151
100
AcDbEntity
8
0
100
AcDbPolyline
90
8
70
1
43
0.0
10
307.03750000000002
20
-50.650000000000006
10
307.03750000000002
20
-63.650000000000006
42
-0.41421356237309503
10
306.53750000000002
20
-64.150000000000006
10
293.53750000000002
20
-64.150000000000006
42
-0.41421356237309503
10
293.03750000000002
20
-63.650000000000006
10
293.03750000000002
20
-50.650000000000006
42
-0.41421356237309503
10
293.53750000000002
20
-50.150000000000006
10
306.53750000000002
20
-50.149999999999999
42
-0.41421356237309503
0
LWPOLYLINE
5
152
100
AcDbEntity
8
0
100
AcDbPolyline
90
8
70
1
43
0.0
10
331.13750000000005
20
-50.650000000000006
10
331.13750000000005
20
-63.650000000000006
42
0.41421356237309503
10
331.63749999999999
20
-64.150000000000006
10
344.63749999999999
20
-64.150000000000006
42
0.41421356237309503
10
345.13750000000005
20
-63.650000000000006
10
345.13750000000005
20
-50.650000000000006
42
0.41421356237309503
10
344.63749999999999
20
-50.150000000000006
10
331.63749999999999
20
-50.150000000000006
42
0.41421356237309503
0
LWPOLYLINE
5
153
100
AcDbEntity
8
0
100
AcDbPolyline
90
8
70
1
43
0.0
10
217.33750000000001
20
-102.25000000000001
10
230.33750000000001
20
-102.25000000000001
42
0.41421356237309503
10
230.83750000000003
20
-101.75
10
230.83750000000003
20
-88.75
42
0.41421356237309503
10
230.33750000000001
20
-88.250000000000014
10
217.33750000000001
20
-88.250000000000014
42
0.41421356237309503
10
216.83750000000003
20
-88.75
10
216.83750000000001
20
-101.75
42
0.41421356237309503
0
LWPOLYLINE
5
154
100
AcDbEntity
8
0
100
AcDbPolyline
90
8
70
1
43
0.0
10
54.125000000000007
20
-45.099999999999994
42
0.41421356237309503
10
54.625
20
-44.600000000000001
10
54.625
20
-31.600000000000001
42
0.41421356237309503
10
54.125000000000007
20
-31.100000000000001
10
41.125
20
-31.100000000000001
42
0.41421356237309503
10
40.625
20
-31.600000000000001
10
40.625
20
-44.600000000000001
42
0.41421356237309503
10
41.125
20
-45.099999999999994
0
ARC
5
155
100
AcDbEntity
8
0
100
AcDbCircle
10
251.762
20
-46.600000000000001
30
0
40
0.50000000000000711
210
0
220
0
230
1
100
AcDbArc
50
180
51
270
0
LWPOLYLINE
5
156
100
AcDbEntity
8
0
100
AcDbPolyline
90
8
70
1
43
0.0
10
7.7875000000000005
20
-50.150000000000006
42
0.41421356237309503
10
7.2874999999999996
20
-50.650000000000006
10
7.2874999999999996
20
-63.650000000000006
42
0.41421356237309503
10
7.7875000000000005
20
-64.150000000000006
10
20.787500000000001
20
-64.150000000000006
42
0.41421356237309503
10
21.287500000000001
20
-63.650000000000006
10
21.287500000000001
20
-50.650000000000006
42
0.41421356237309503
10
20.787500000000001
20
-50.150000000000006
0
LWPOLYLINE
5
157
100
AcDbEntity
8
0
100
AcDbPolyline
90
8
70
1
43
0.0
10
24.787500000000001
20
-50.150000000000006
42
0.41421356237309503
10
24.287500000000005
20
-50.650000000000006
10
24.287500000000005
20
-63.650000000000006
42
0.41421356237309503
10
24.787500000000001
20
-64.150000000000006
10
25.287500000000005
20
-64.150000000000006
42
0.41421356237309503
10
25.787500000000001
20
-63.650000000000006
10
25.787500000000001
20
-50.650000000000006
42
0.41421356237309503
10
25.287500000000005
20
-50.150000000000006
0
LWPOLYLINE
5
158
100
AcDbEntity
8
0
100
AcDbPolyline
90
8
70
1
43
0.0
10
282.46249999999998
20
-121.30000000000001
42
0.41421356237309503
10
282.96249999999998
20
-120.8
10
282.96249999999998
20
-107.80000000000001
42
0.41421356237309503
10
282.46249999999998
20
-107.30000000000001
10
281.96249999999998
20
-107.30000000000001
42
0.41421356237309503
10
281.46249999999998
20
-107.80000000000001
10
281.46249999999998
20
-120.8
42
0.41421356237309503
10
281.96249999999998
20
-121.30000000000001
0
LWPOLYLINE
5
159
100
AcDbEntity
8
0
100
AcDbPolyline
90
8
70
1
43
0.0
10
51.412500000000001
20
-121.30000000000001
42
0.41421356237309503
10
51.912500000000001
20
-120.8
10
51.912500000000001
20
-107.80000000000001
42
0.41421356237309503
10
51.412500000000001
20
-107.30000000000001
10
50.912500000000009
20
-107.30000000000001
42
0.41421356237309503
10
50.412500000000009
20
-107.80000000000001
10
50.412500000000009
20
-120.8
42
0.41421356237309503
10
50.912500000000009
20
-121.30000000000001
0
LWPOLYLINE
5
160
100
AcDbEntity
8
0
100
AcDbPolyline
90
8
70
1
43
0.0
10
54.912500000000009
20
-120.8
42
0.41421356237309503
10
55.412500000000009
20
-121.30000000000001
10
68.412499999999994
20
-121.30000000000001
42
0.41421356237309503
10
68.912499999999994
20
-120.8
10
68.912499999999994
20
-107.80000000000001
42
0.41421356237309503
10
68.412499999999994
20
-107.30000000000001
10
55.412500000000009
20
-107.30000000000001
42
0.41421356237309503
10
54.912500000000009
20
-107.80000000000001
0
LWPOLYLINE
5
161
100
AcDbEntity
8
0
100
AcDbPolyline
90
8
70
1
43
0.0
10
72.412499999999994
20
-107.30000000000001
42
0.41421356237309503
10
71.912499999999994
20
-107.80000000000001
10
71.912499999999994
20
-120.8
42
0.41421356237309503
10
72.412499999999994
20
-121.30000000000001
10
72.912499999999994
20
-121.30000000000001
42
0.41421356237309503
10
73.412499999999994
20
-120.8
10
73.412499999999994
20
-107.80000000000001
42
0.41421356237309503
10
72.912499999999994
20
-107.30000000000001
0
LWPOLYLINE
5
162
100
AcDbEntity
8
0
100
AcDbPolyline
90
8
70
1
43
0.0
10
254.65000000000003
20
-107.80000000000001
10
254.65000000000003
20
-120.8
42
-0.41421356237309503
10
254.15000000000003
20
-121.30000000000001
10
241.15000000000003
20
-121.30000000000001
42
-0.41421356237309503
10
240.65000000000001
20
-120.8
10
240.65000000000001
20
-107.80000000000001
42
-0.41421356237309503
10
241.15000000000003
20
-107.30000000000001
10
254.15000000000003
20
-107.30000000000001
42
-0.41421356237309503
0
LWPOLYLINE
5
163
100
AcDbEntity
8
0
100
AcDbPolyline
90
8
70
1
43
0.0
10
45.887500000000003
20
-104.02500000000002
10
78.674999999999983
20
-104.02500000000002
42
-0.41421356237305862
10
79.174999999999983
20
-104.52500000000001
10
79.174999999999983
20
-105.02500000000001
42
-0.41421356237305862
10
78.674999999999983
20
-105.52500000000001
10
45.88750000000001
20
-105.52499999999998
42
-0.41421356237307944
10
45.387500000000003
20
-105.02499999999999
10
45.387500000000003
20
-104.52500000000001
42
-0.41421356237305862
0
LINE
5
164
100
AcDbEntity
8
0
100
AcDbLine
10
250.17500000000001
20
-31.600000000000001
30
0
11
250.17500000000001
21
-44.600000000000001
31
0
0
ARC
5
165
100
AcDbEntity
8
0
100
AcDbCircle
10
250.67500000000001
20
-31.600000000000001
30
0
40
0.49999999999999822
210
0
220
-0
230
1
100
AcDbArc
50
90
51
180
0
LWPOLYLINE
5
166
100
AcDbEntity
8
0
100
AcDbPolyline
90
24
70
1
43
0.0
10
40.337500000000006
20
-88.75
10
40.337500000000013
20
-101.75
42
-0.41421356237309503
10
39.837499999999999
20
-102.25000000000001
10
37.369250000000008
20
-102.25000000000001
42
0.41421356237309243
10
36.869250000000008
20
-102.75000000000003
10
36.869250000000008
20
-103.75
42
-0.41421356237309503
10
36.369250000000001
20
-104.25
10
30.369250000000001
20
-104.25
42
-0.41421356237309503
10
29.869250000000001
20
-103.75
10
29.869249999999997
20
-102.75000000000003
42
0.41421356237309243
10
29.369249999999994
20
-102.25000000000001
10
13.500000193715103
20
-102.25000000000001
42
0.41421356237309631
10
13.000000193715096
20
-102.75000000000003
10
13.000000193715103
20
-103.75
42
-0.41421356237309503
10
12.500000193715096
20
-104.25
10
6.5000001937150955
20
-104.25
42
-0.41421356237309503
10
6.0000001937150946
20
-103.75
10
6.0000001241763492
20
-102.74999996523066
42
0.41421354200556987
10
5.50000012417647
20
-102.25000000000003
10
5.40625
20
-102.25000000000001
42
-0.41421356237309503
10
4.90625
20
-101.75
10
4.9062500000000107
20
-88.75
42
-0.41421356237309503
10
5.40625
20
-88.250000000000014
10
39.837499999999999
20
-88.25
42
-0.41421356237309503
0
LWPOLYLINE
5
167
100
AcDbEntity
8
0
100
AcDbPolyline
90
8
70
1
43
0.0
10
26.668750000000003
20
-69.700000000000003
10
26.668750000000003
20
-82.700000000000017
42
0.41421356237309503
10
27.168749999999999
20
-83.200000000000017
10
27.668750000000003
20
-83.200000000000017
42
0.41421356237309503
10
28.168749999999999
20
-82.700000000000017
10
28.168749999999999
20
-69.700000000000003
42
0.41421356237309503
10
27.668750000000003
20
-69.200000000000003
10
27.168749999999999
20
-69.200000000000003
42
0.41421356237309503
0
LWPOLYLINE
5
168
100
AcDbEntity
8
0
100
AcDbPolyline
90
8
70
1
43
0.0
10
240.36249999999998
20
-85.47499999999998
10
240.36250000000001
20
-85.975000000000023
42
-0.41421356237310542
10
239.86250000000007
20
-86.475000000000009
10
5.4062499999999858
20
-86.475000000000009
42
-0.41421356237310542
10
4.9062499999999964
20
-85.975000000000037
10
4.9062499999999973
20
-85.474999999999994
42
-0.4142135623730957
10
5.4062499999999698
20
-84.975000000000023
10
239.86250000000007
20
-84.975000000000009
42
-0.41421356237315748
0
LWPOLYLINE
5
169
100
AcDbEntity
8
0
100
AcDbPolyline
90
8
70
1
43
0.0
10
244.61825000000002
20
-89.249999999999986
42
0.41421356237309503
10
244.11824999999999
20
-89.75
10
244.11824999999999
20
-103.75
42
0.41421356237309503
10
244.61825000000002
20
-104.25
10
250.61824999999999
20
-104.25
42
0.41421356237309503
10
251.11824999999999
20
-103.75
10
251.11824999999999
20
-89.75
42
0.41421356237309503
10
250.61824999999999
20
-89.249999999999986
0
LWPOLYLINE
5
170
100
AcDbEntity
8
0
100
AcDbPolyline
90
8
70
1
43
0.0
10
24.287500000000005
20
-107.80000000000001
10
24.287500000000005
20
-120.8
42
0.41421356237309503
10
24.787500000000001
20
-121.30000000000001
10
25.287500000000005
20
-121.30000000000001
42
0.41421356237309503
10
25.787500000000001
20
-120.8
10
25.787500000000001
20
-107.80000000000001
42
0.41421356237309503
10
25.287500000000005
20
-107.30000000000001
10
24.787500000000001
20
-107.30000000000001
42
0.41421356237309503
0
LWPOLYLINE
5
171
100
AcDbEntity
8
0
100
AcDbPolyline
90
8
70
1
43
0.0
10
312.08749999999998
20
-63.650000000000006
42
0.41421356237309503
10
312.58749999999998
20
-64.150000000000006
10
325.58749999999998
20
-64.150000000000006
42
0.41421356237309503
10
326.08749999999992
20
-63.650000000000006
10
326.08749999999992
20
-50.650000000000006
42
0.41421356237309503
10
325.58749999999998
20
-50.150000000000006
10
312.58749999999998
20
-50.150000000000006
42
0.41421356237309503
10
312.08749999999998
20
-50.650000000000006
0
LWPOLYLINE
5
172
100
AcDbEntity
8
0
100
AcDbPolyline
90
8
70
1
43
0.0
10
233.83750000000003
20
-120.8
42
0.41421356237309503
10
234.33750000000003
20
-121.30000000000001
10
234.83750000000001
20
-121.30000000000001
42
0.41421356237309503
10
235.33750000000001
20
-120.8
10
235.33750000000001
20
-107.80000000000001
42
0.41421356237309503
10
234.83750000000001
20
-107.30000000000001
10
234.33750000000003
20
-107.30000000000001
42
0.41421356237309503
10
233.83750000000003
20
-107.80000000000001
0
LWPOLYLINE
5
173
100
AcDbEntity
8
0
100
AcDbPolyline
90
8
70
1
43
0.0
10
293.53750000000002
20
-69.150000000000006
10
344.63749999999999
20
-69.149999999999963
42
-0.41421356237309503
10
345.13750000000005
20
-69.650000000000006
10
345.13750000000005
20
-82.650000000000006
42
-0.41421356237309503
10
344.63749999999999
20
-83.150000000000006
10
293.53750000000002
20
-83.150000000000006
42
-0.41421356237309503
10
293.03750000000002
20
-82.650000000000006
10
293.03750000000002
20
-69.650000000000006
42
-0.41421356237309503
0
LWPOLYLINE
5
174
100
AcDbEntity
8
0
100
AcDbPolyline
90
8
70
1
43
0.0
10
158.90000000000001
20
-64.150000000000006
42
0.41421356237309503
10
159.40000000000001
20
-63.650000000000006
10
159.40000000000001
20
-50.650000000000006
42
0.41421356237309503
10
158.90000000000001
20
-50.150000000000006
10
145.90000000000001
20
-50.150000000000006
42
0.41421356237309503
10
145.40000000000001
20
-50.650000000000006
10
145.40000000000001
20
-63.650000000000006
42
0.41421356237309503
10
145.90000000000001
20
-64.150000000000006
0
LWPOLYLINE
5
175
100
AcDbEntity
8
0
100
AcDbPolyline
90
8
70
1
43
0.0
10
130.875
20
-111.52500000000002
10
130.875
20
-113.52500000000001
42
-0.41421356237308815
10
127.875
20
-116.52500000000002
10
103.87500000000001
20
-116.52500000000002
42
-0.41421356237308815
10
100.875
20
-113.52500000000001
10
100.875
20
-111.52500000000002
42
-0.41421356237308815
10
103.87500000000001
20
-108.52500000000001
10
127.875
20
-108.52500000000001
42
-0.41421356237308815
0
LWPOLYLINE
5
176
100
AcDbEntity
8
0
100
AcDbPolyline
90
8
70
1
43
0.0
10
141.13749999999999
20
-102.25000000000001
10
154.13749999999999
20
-102.25000000000001
42
0.41421356237309503
10
154.63749999999999
20
-101.75
10
154.63749999999999
20
-88.75
42
0.41421356237309503
10
154.13749999999999
20
-88.250000000000014
10
141.13749999999999
20
-88.250000000000014
42
0.41421356237309503
10
140.63749999999999
20
-88.75
10
140.63749999999999
20
-101.75
42
0.41421356237309503
0
LWPOLYLINE
5
177
100
AcDbEntity
8
0
100
AcDbPolyline
90
8
70
1
43
0.0
10
173.1875
20
-102.25000000000001
42
0.41421356237309503
10
173.68750000000003
20
-101.75
10
173.68750000000003
20
-88.75
42
0.41421356237309503
10
173.1875
20
-88.25
10
160.1875
20
-88.250000000000014
42
0.41421356237309503
10
159.6875
20
-88.75
10
159.6875
20
-101.75
42
0.41421356237309503
10
160.1875
20
-102.25000000000001
0
LWPOLYLINE
5
178
100
AcDbEntity
8
0
100
AcDbPolyline
90
8
70
1
43
0.0
10
150.66249999999999
20
-69.200000000000003
10
163.66250000000002
20
-69.200000000000003
42
-0.41421356237309503
10
164.16250000000002
20
-69.700000000000003
10
164.16250000000002
20
-82.700000000000017
42
-0.41421356237309503
10
163.66250000000002
20
-83.200000000000017
10
150.66249999999999
20
-83.200000000000017
42
-0.41421356237309503
10
150.16249999999999
20
-82.700000000000017
10
150.16249999999999
20
-69.700000000000003
42
-0.41421356237309503
0
LWPOLYLINE
5
179
100
AcDbEntity
8
0
100
AcDbPolyline
90
8
70
1
43
0.0
10
177.94999999999999
20
-64.150000000000006
42
0.41421356237309503
10
178.44999999999999
20
-63.650000000000006
10
178.44999999999999
20
-50.650000000000006
42
0.41421356237309503
10
177.94999999999999
20
-50.150000000000006
10
164.95000000000002
20
-50.150000000000006
42
0.41421356237309503
10
164.44999999999999
20
-50.650000000000006
10
164.44999999999999
20
-63.650000000000006
42
0.41421356237309503
10
164.95000000000002
20
-64.150000000000006
0
LWPOLYLINE
5
180
100
AcDbEntity
8
0
100
AcDbPolyline
90
8
70
1
43
0.0
10
83.987499999999997
20
-88.250000000000014
42
0.41421356237309503
10
83.487500000000011
20
-88.75
10
83.487499999999983
20
-101.75
42
0.41421356237309503
10
83.987499999999997
20
-102.25000000000001
10
96.987500000000011
20
-102.25000000000001
42
0.41421356237309503
10
97.487500000000011
20
-101.75
10
97.487500000000011
20
-88.75
42
0.41421356237309503
10
96.987500000000011
20
-88.25
0
LWPOLYLINE
5
181
100
AcDbEntity
8
0
100
AcDbPolyline
90
8
70
1
43
0.0
10
122.08750000000002
20
-88.250000000000014
42
0.41421356237309503
10
121.58750000000001
20
-88.75
10
121.58750000000001
20
-101.75
42
0.41421356237309503
10
122.08750000000002
20
-102.25000000000001
10
135.08750000000001
20
-102.25000000000001
42
0.41421356237309503
10
135.58750000000001
20
-101.75
10
135.58750000000001
20
-88.75
42
0.41421356237309503
10
135.08750000000001
20
-88.250000000000014
0
LWPOLYLINE
5
182
100
AcDbEntity
8
0
100
AcDbPolyline
90
8
70
1
43
0.0
10
93.512500000000003
20
-69.200000000000003
10
106.51250000000002
20
-69.200000000000003
42
-0.41421356237309503
10
107.01250000000002
20
-69.700000000000003
10
107.01250000000002
20
-82.700000000000017
42
-0.41421356237309503
10
106.51250000000002
20
-83.200000000000017
10
93.512500000000003
20
-83.200000000000017
42
-0.41421356237309503
10
93.012499999999989
20
-82.700000000000017
10
93.012499999999989
20
-69.700000000000003
42
-0.41421356237309503
0
LWPOLYLINE
5
183
100
AcDbEntity
8
0
100
AcDbPolyline
90
8
70
1
43
0.0
10
107.80000000000001
20
-64.150000000000006
10
120.8
20
-64.150000000000006
42
0.41421356237309503
10
121.30000000000001
20
-63.650000000000006
10
121.30000000000001
20
-50.650000000000006
42
0.41421356237309503
10
120.8
20
-50.150000000000006
10
107.80000000000001
20
-50.150000000000006
42
0.41421356237309503
10
107.30000000000001
20
-50.650000000000006
10
107.30000000000001
20
-63.650000000000006
42
0.41421356237309503
0
LWPOLYLINE
5
184
100
AcDbEntity
8
0
100
AcDbPolyline
90
8
70
1
43
0.0
10
112.0625
20
-82.700000000000017
42
0.41421356237309503
10
112.56250000000001
20
-83.200000000000003
10
125.5625
20
-83.200000000000003
42
0.41421356237309503
10
126.06250000000001
20
-82.700000000000017
10
126.06250000000001
20
-69.700000000000003
42
0.41421356237309503
10
125.5625
20
-69.200000000000003
10
112.56250000000001
20
-69.200000000000003
42
0.41421356237309503
10
112.0625
20
-69.700000000000003
0
LWPOLYLINE
5
185
100
AcDbEntity
8
0
100
AcDbPolyline
90
8
70
1
43
0.0
10
88.25
20
-63.650000000000006
42
0.41421356237309503
10
88.75
20
-64.150000000000006
10
101.75
20
-64.150000000000006
42
0.41421356237309503
10
102.25000000000001
20
-63.650000000000006
10
102.25000000000001
20
-50.650000000000006
42
0.41421356237309503
10
101.75
20
-50.150000000000006
10
88.75
20
-50.150000000000006
42
0.41421356237309503
10
88.25
20
-50.650000000000006
0
LWPOLYLINE
5
186
100
AcDbEntity
8
0
100
AcDbPolyline
90
8
70
1
43
0.0
10
154.92500000000001
20
-31.600000000000001
10
154.92500000000001
20
-44.600000000000001
42
0.41421356237309503
10
155.42500000000001
20
-45.100000000000009
10
168.42500000000001
20
-45.099999999999994
42
0.41421356237309503
10
168.92500000000001
20
-44.600000000000001
10
168.92500000000001
20
-31.600000000000001
42
0.41421356237309503
10
168.42500000000001
20
-31.100000000000001
10
155.42500000000001
20
-31.100000000000001
42
0.41421356237309503
0
LWPOLYLINE
5
187
100
AcDbEntity
8
0
100
AcDbPolyline
90
8
70
1
43
0.0
10
149.875
20
-31.600000000000001
10
149.875
20
-44.600000000000001
42
-0.41421356237309503
10
149.375
20
-45.099999999999994
10
136.375
20
-45.100000000000009
42
-0.41421356237309503
10
135.875
20
-44.600000000000001
10
135.87500000000003
20
-31.600000000000001
42
-0.41421356237309503
10
136.375
20
-31.100000000000001
10
149.375
20
-31.099999999999994
42
-0.41421356237309503
0
LWPOLYLINE
5
188
100
AcDbEntity
8
0
100
AcDbPolyline
90
8
70
1
43
0.0
10
145.11250000000001
20
-69.700000000000003
42
0.41421356237309503
10
144.61250000000001
20
-69.200000000000003
10
131.61250000000001
20
-69.200000000000003
42
0.41421356237309503
10
131.11250000000001
20
-69.700000000000003
10
131.11250000000001
20
-82.700000000000017
42
0.41421356237309503
10
131.61250000000001
20
-83.200000000000017
10
144.61250000000001
20
-83.200000000000017
42
0.41421356237309503
10
145.11250000000001
20
-82.700000000000017
0
LWPOLYLINE
5
189
100
AcDbEntity
8
0
100
AcDbPolyline
90
8
70
1
43
0.0
10
82.724999999999994
20
-105.3
10
88.725000000000009
20
-105.29999999999998
42
-0.41421356237309503
10
89.225000000000009
20
-105.79999999999998
10
89.225000000000009
20
-119.79999999999998
42
-0.41421356237309503
10
88.725000000000009
20
-120.3
10
82.724999999999994
20
-120.3
42
-0.41421356237309503
10
82.22499999999998
20
-119.79999999999998
10
82.224999999999994
20
-105.79999999999998
42
-0.41421356237309503
0
LWPOLYLINE
5
190
100
AcDbEntity
8
0
100
AcDbPolyline
90
8
70
1
43
0.0
10
103.03750000000001
20
-102.25000000000001
10
116.03749999999999
20
-102.25000000000001
42
0.41421356237309503
10
116.53750000000001
20
-101.75
10
116.53750000000001
20
-88.75
42
0.41421356237309503
10
116.03749999999999
20
-88.25
10
103.03750000000001
20
-88.25
42
0.41421356237309503
10
102.53749999999999
20
-88.75
10
102.53749999999999
20
-101.75
42
0.41421356237309503
0
LINE
5
191
100
AcDbEntity
8
0
100
AcDbLine
10
250.67500000000001
20
-31.100000000000001
30
0
11
263.67500000000001
21
-31.100000000000001
31
0
0
LINE
5
192
100
AcDbEntity
8
0
100
AcDbLine
10
251.762
20
-47.100000000000001
30
0
11
257.76200000000006
21
-47.100000000000001
31
0
0
ARC
5
193
100
AcDbEntity
8
0
100
AcDbCircle
10
281.63799999999998
20
-46.600000000000001
30
0
40
0.49999999999999822
210
0
220
0
230
1
100
AcDbArc
50
-90
51
0
0
LWPOLYLINE
5
194
100
AcDbEntity
8
0
100
AcDbPolyline
90
8
70
1
43
0.0
10
4.2874999999999996
20
-107.80000000000001
10
4.2875000000000076
20
-120.8
42
-0.41421356237309503
10
3.7875000000000005
20
-121.30000000000001
10
3.2875000000000005
20
-121.30000000000001
42
-0.41421356237309503
10
2.7875000000000005
20
-120.8
10
2.7874999999999934
20
-107.80000000000001
42
-0.41421356237309503
10
3.2875000000000005
20
-107.30000000000001
10
3.7875000000000005
20
-107.30000000000001
42
-0.41421356237309503
0
LWPOLYLINE
5
195
100
AcDbEntity
8
0
100
AcDbPolyline
90
8
70
1
43
0.0
10
326.08749999999998
20
-88.75
10
326.08749999999998
20
-101.75
42
-0.41421356237309503
10
325.58749999999998
20
-102.25000000000001
10
312.58749999999998
20
-102.25000000000001
42
-0.41421356237309503
10
312.08749999999998
20
-101.75
10
312.08750000000003
20
-88.75
42
-0.41421356237309503
10
312.58749999999998
20
-88.250000000000014
10
325.58749999999998
20
-88.249999999999957
42
-0.41421356237309503
0
LWPOLYLINE
5
196
100
AcDbEntity
8
0
100
AcDbPolyline
90
8
70
1
43
0.0
10
23.168749999999999
20
-83.200000000000003
42
0.41421356237309503
10
23.668749999999999
20
-82.700000000000017
10
23.668749999999999
20
-69.700000000000003
42
0.41421356237309503
10
23.168749999999999
20
-69.200000000000003
10
5.40625
20
-69.200000000000003
42
0.41421356237309503
10
4.90625
20
-69.700000000000003
10
4.90625
20
-82.700000000000017
42
0.41421356237309503
10
5.40625
20
-83.200000000000003
0
LWPOLYLINE
5
197
100
AcDbEntity
8
0
100
AcDbPolyline
90
8
70
1
43
0.0
10
7.2874999999999996
20
-107.80000000000001
10
7.2874999999999996
20
-120.8
42
0.41421356237309503
10
7.7875000000000005
20
-121.30000000000001
10
20.787500000000001
20
-121.30000000000001
42
0.41421356237309503
10
21.287500000000001
20
-120.8
10
21.287500000000001
20
-107.80000000000001
42
0.41421356237309503
10
20.787500000000001
20
-107.30000000000001
10
7.7875000000000005
20
-107.30000000000001
42
0.41421356237309503
0
LWPOLYLINE
5
198
100
AcDbEntity
8
0
100
AcDbPolyline
90
8
70
1
43
0.0
10
331.08749999999998
20
-88.75
10
331.08749999999998
20
-101.75
42
0.41421356237309503
10
331.58749999999998
20
-102.25000000000001
10
344.58749999999998
20
-102.25000000000001
42
0.41421356237309503
10
345.08749999999998
20
-101.75
10
345.08749999999998
20
-88.75
42
0.41421356237309503
10
344.58749999999998
20
-88.250000000000014
10
331.58749999999998
20
-88.250000000000014
42
0.41421356237309503
0
ARC
5
199
100
AcDbEntity
8
0
100
AcDbCircle
10
275.63800000000003
20
-46.600000000000001
30
0
40
0.50000000000000711
210
0
220
0
230
1
100
AcDbArc
50
180
51
270
0
LINE
5
200
100
AcDbEntity
8
0
100
AcDbLine
10
275.63800000000003
20
-47.100000000000001
30
0
11
281.63799999999998
21
-47.100000000000001
31
0
0
LINE
5
201
100
AcDbEntity
8
0
100
AcDbLine
10
282.13799999999998
20
-45.599999999999966
30
0
11
282.13799999999998
21
-46.600000000000001
31
0
0
LWPOLYLINE
5
202
100
AcDbEntity
8
0
100
AcDbPolyline
90
8
70
1
43
0.0
10
325.58749999999998
20
-121.30000000000001
42
0.41421356237309503
10
326.08749999999998
20
-120.8
10
326.08749999999998
20
-107.80000000000001
42
0.41421356237309503
10
325.58749999999998
20
-107.30000000000001
10
312.58749999999998
20
-107.30000000000001
42
0.41421356237309503
10
312.08749999999998
20
-107.80000000000001
10
312.08749999999998
20
-120.8
42
0.41421356237309503
10
312.58749999999998
20
-121.30000000000001
0
LWPOLYLINE
5
203
100
AcDbEntity
8
0
100
AcDbPolyline
90
8
70
1
43
0.0
10
344.63749999999999
20
-121.30000000000001
42
0.41421356237309503
10
345.13749999999993
20
-120.8
10
345.13750000000005
20
-107.80000000000001
42
0.41421356237309503
10
344.63749999999999
20
-107.30000000000001
10
331.63749999999999
20
-107.30000000000001
42
0.41421356237309503
10
331.13750000000005
20
-107.80000000000001
10
331.13750000000005
20
-120.8
42
0.41421356237309503
10
331.63749999999999
20
-121.30000000000001
0
LINE
5
204
100
AcDbEntity
8
0
100
AcDbLine
10
258.76200000000006
20
-45.099999999999987
30
0
11
274.63800000000003
21
-45.099999999999994
31
0
0
LINE
5
205
100
AcDbEntity
8
0
100
AcDbLine
10
283.22500000000002
20
-31.600000000000001
30
0
11
283.22500000000002
21
-44.600000000000001
31
0
0
LINE
5
206
100
AcDbEntity
8
0
100
AcDbLine
10
275.13800000000003
20
-45.599999999999966
30
0
11
275.13799999999998
21
-46.600000000000001
31
0
0
LWPOLYLINE
5
207
100
AcDbEntity
8
0
100
AcDbPolyline
90
8
70
1
43
0.0
10
312.08749999999998
20
-31.600000000000001
10
312.08749999999998
20
-44.600000000000001
42
0.41421356237309503
10
312.58749999999998
20
-45.099999999999994
10
325.58749999999998
20
-45.100000000000009
42
0.41421356237309503
10
326.08749999999992
20
-44.600000000000001
10
326.08749999999992
20
-31.600000000000001
42
0.41421356237309503
10
325.58749999999998
20
-31.100000000000001
10
312.58749999999998
20
-31.100000000000001
42
0.41421356237309503
0
LINE
5
208
100
AcDbEntity
8
0
100
AcDbLine
10
282.63799999999998
20
-45.099999999999987
30
0
11
282.72500000000002
21
-45.099999999999994
31
0
0
ARC
5
209
100
AcDbEntity
8
0
100
AcDbCircle
10
282.72500000000002
20
-44.600000000000001
30
0
40
0.49999999999999822
210
0
220
0
230
1
100
AcDbArc
50
-90
51
0
0
ARC
5
210
100
AcDbEntity
8
0
100
AcDbCircle
10
257.76200000000006
20
-46.600000000000001
30
0
40
0.49999999999999822
210
0
220
0
230
1
100
AcDbArc
50
-90
51
0
0
LINE
5
211
100
AcDbEntity
8
0
100
AcDbLine
10
258.26200000000006
20
-45.599999999999937
30
0
11
258.26200000000006
21
-46.600000000000001
31
0
0
LWPOLYLINE
5
212
100
AcDbEntity
8
0
100
AcDbPolyline
90
8
70
1
43
0.0
10
345.13750000000005
20
-31.600000000000001
10
345.13750000000005
20
-44.600000000000001
42
-0.41421356237309503
10
344.63749999999999
20
-45.100000000000009
10
331.63749999999999
20
-45.099999999999973
42
-0.41421356237309503
10
331.13750000000005
20
-44.600000000000001
10
331.13750000000005
20
-31.600000000000001
42
-0.41421356237309503
10
331.63749999999999
20
-31.100000000000001
10
344.63749999999999
20
-31.099999999999959
42
-0.41421356237309503
0
LWPOLYLINE
5
213
100
AcDbEntity
8
0
100
AcDbPolyline
90
8
70
1
43
0.0
10
293.03750000000002
20
-44.600000000000001
42
0.41421356237309503
10
293.53750000000002
20
-45.099999999999994
10
306.53750000000002
20
-45.099999999999994
42
0.41421356237309503
10
307.03750000000002
20
-44.600000000000001
10
307.03750000000002
20
-31.600000000000001
42
0.41421356237309503
10
306.53750000000002
20
-31.100000000000001
10
293.53750000000002
20
-31.100000000000001
42
0.41421356237309503
10
293.03750000000002
20
-31.600000000000001
0
LWPOLYLINE
5
214
100
AcDbEntity
8
0
100
AcDbPolyline
90
8
70
1
43
0.0
10
293.03750000000002
20
-47.721183207777138
10
293.03750000000002
20
-47.221183207777258
42
-0.41421356237313145
10
293.53750000000002
20
-46.721183207777266
10
344.63750000000005
20
-46.721183207777244
42
-0.4142135623730222
10
345.13750000000005
20
-47.221183207777237
10
345.13750000000005
20
-47.721183207777138
42
-0.4142135623730222
10
344.63750000000005
20
-48.221183207777123
10
293.53749999999997
20
-48.221183207777116
42
-0.41421356237310025
0
LWPOLYLINE
5
215
100
AcDbEntity
8
0
100
AcDbPolyline
90
8
70
1
43
0.0
10
307.03750000000002
20
-107.80000000000001
42
0.41421356237309503
10
306.53750000000002
20
-107.30000000000001
10
293.53750000000002
20
-107.30000000000001
42
0.41421356237309503
10
293.03750000000002
20
-107.80000000000001
10
293.03750000000002
20
-120.8
42
0.41421356237309503
10
293.53750000000002
20
-121.30000000000001
10
306.53750000000002
20
-121.30000000000001
42
0.41421356237309503
10
307.03750000000002
20
-120.8
0
LINE
5
216
100
AcDbEntity
8
0
100
AcDbLine
10
260.19999999999999
20
-31.100000000000001
30
0
11
273.19999999999999
21
-31.100000000000001
31
0
0
LINE
5
217
100
AcDbEntity
8
0
100
AcDbLine
10
269.72500000000002
20
-31.100000000000001
30
0
11
282.72500000000002
21
-31.100000000000001
31
0
0
ARC
5
218
100
AcDbEntity
8
0
100
AcDbCircle
10
282.72500000000002
20
-31.600000000000001
30
0
40
0.50000000000000711
210
0
220
0
230
1
100
AcDbArc
50
0
51
90
0
LINE
5
219
100
AcDbEntity
8
0
100
AcDbLine
10
236.86648917160358
20
-104.37906197935375
30
0
11
236.96608674488391
21
-104.37906197935375
31
0
0
SPLINE
5
220
100
AcDbEntity
8
0
100
AcDbSpline
70
0
71
2
72
6
73
3
74
0
42
0.000000001
43
0.0000000001
44
0.0000000001
40
0
40
0
40
0
40
1
40
1
40
1
10
236.96608674488391
20
-104.37906197935375
30
0
10
236.67936634979571
20
-104.16175827115806
30
0
10
236.54506069383945
20
-103.9037097963694
30
0
0
SPLINE
5
221
100
AcDbEntity
8
0
100
AcDbSpline
70
0
71
2
72
6
73
3
74
0
42
0.000000001
43
0.0000000001
44
0.0000000001
40
0
40
0
40
0
40
1
40
1
40
1
10
236.54506069383945
20
-103.9037097963694
30
0
10
236.41075473985995
20
-103.64566161960396
30
0
10
236.41075473985995
20
-103.31065162748131
30
0
0
SPLINE
5
222
100
AcDbEntity
8
0
100
AcDbSpline
70
0
71
2
72
6
73
3
74
0
42
0.000000001
43
0.0000000001
44
0.0000000001
40
0
40
0
40
0
40
1
40
1
40
1
10
236.41075473985995
20
-103.31065162748131
30
0
10
236.41075473985995
20
-102.98469587892326
30
0
10
236.55260574779834
20
-102.72815659374031
30
0
0
SPLINE
5
223
100
AcDbEntity
8
0
100
AcDbSpline
70
0
71
2
72
6
73
3
74
0
42
0.000000001
43
0.0000000001
44
0.0000000001
40
0
40
0
40
0
40
1
40
1
40
1
10
236.55260574779834
20
-102.72815659374031
30
0
10
236.69445705375995
20
-102.47161730855736
30
0
10
236.9540144201311
20
-102.3448570045832
30
0
0
SPLINE
5
224
100
AcDbEntity
8
0
100
AcDbSpline
70
0
71
2
72
6
73
3
74
0
42
0.000000001
43
0.0000000001
44
0.0000000001
40
0
40
0
40
0
40
1
40
1
40
1
10
236.9540144201311
20
-102.3448570045832
30
0
10
237.10491967163409
20
-102.26336791843208
30
0
10
237.27997016868915
20
-102.23922297090324
30
0
0
SPLINE
5
225
100
AcDbEntity
8
0
100
AcDbSpline
70
0
71
2
72
6
73
3
74
0
42
0.000000001
43
0.0000000001
44
0.0000000001
40
0
40
0
40
0
40
1
40
1
40
1
10
237.27997016868915
20
-102.23922297090324
30
0
10
237.4550206657442
20
-102.21507832139763
30
0
10
237.72665035686816
20
-102.21507832139763
30
0
0
LINE
5
226
100
AcDbEntity
8
0
100
AcDbLine
10
237.72665035686816
20
-102.21507832139763
30
0
11
239.25984930954303
21
-102.21507832139763
31
0
0
SPLINE
5
227
100
AcDbEntity
8
0
100
AcDbSpline
70
0
71
2
72
6
73
3
74
0
42
0.000000001
43
0.0000000001
44
0.0000000001
40
0
40
0
40
0
40
1
40
1
40
1
10
239.25984930954303
20
-102.21507832139761
30
0
10
239.50733435116138
20
-102.21507832139761
30
0
10
239.63409495315875
20
-102.32825740903647
30
0
0
SPLINE
5
228
100
AcDbEntity
8
0
100
AcDbSpline
70
0
71
2
72
6
73
3
74
0
42
0.000000001
43
0.0000000001
44
0.0000000001
40
0
40
0
40
0
40
1
40
1
40
1
10
239.63409495315875
20
-102.32825740903647
30
0
10
239.76085555515613
20
-102.44143649667532
30
0
10
239.76085555515613
20
-102.62252285808356
30
0
0
SPLINE
5
229
100
AcDbEntity
8
0
100
AcDbSpline
70
0
71
2
72
6
73
3
74
0
42
0.000000001
43
0.0000000001
44
0.0000000001
40
0
40
0
40
0
40
1
40
1
40
1
10
239.76085555515613
20
-102.62252285808356
30
0
10
239.76085555515613
20
-102.80662730067999
30
0
10
239.63107657394733
20
-102.92131557792456
30
0
0
SPLINE
5
230
100
AcDbEntity
8
0
100
AcDbSpline
70
0
71
2
72
6
73
3
74
0
42
0.000000001
43
0.0000000001
44
0.0000000001
40
0
40
0
40
0
40
1
40
1
40
1
10
239.63107657394733
20
-102.92131557792456
30
0
10
239.50129818878497
20
-103.0360035571459
30
0
10
239.25984930954303
20
-103.0360035571459
30
0
0
LINE
5
231
100
AcDbEntity
8
0
100
AcDbLine
10
239.259849309543
20
-103.0360035571459
30
0
11
237.88661014995898
21
-103.0360035571459
31
0
0
SPLINE
5
232
100
AcDbEntity
8
0
100
AcDbSpline
70
0
71
2
72
6
73
3
74
0
42
0.000000001
43
0.0000000001
44
0.0000000001
40
0
40
0
40
0
40
1
40
1
40
1
10
237.88661014995898
20
-103.03600355714592
30
0
10
237.47916531524982
20
-103.03600355714592
30
0
10
237.26337057314242
20
-103.14918264478477
30
0
0
SPLINE
5
233
100
AcDbEntity
8
0
100
AcDbSpline
70
0
71
2
72
6
73
3
74
0
42
0.000000001
43
0.0000000001
44
0.0000000001
40
0
40
0
40
0
40
1
40
1
40
1
10
237.26337057314242
20
-103.14918264478477
30
0
10
237.04757553301181
20
-103.26236173242363
30
0
10
237.04757553301181
20
-103.6003901037577
30
0
0
SPLINE
5
234
100
AcDbEntity
8
0
100
AcDbSpline
70
0
71
2
72
6
73
3
74
0
42
0.000000001
43
0.0000000001
44
0.0000000001
40
0
40
0
40
0
40
1
40
1
40
1
10
237.04757553301181
20
-103.6003901037577
30
0
10
237.04757553301181
20
-103.82071181863579
30
0
10
237.1788634058031
20
-104.00179847806724
30
0
0
SPLINE
5
235
100
AcDbEntity
8
0
100
AcDbSpline
70
0
71
2
72
6
73
3
74
0
42
0.000000001
43
0.0000000001
44
0.0000000001
40
0
40
0
40
0
40
1
40
1
40
1
10
237.1788634058031
20
-104.00179847806724
30
0
10
237.31015127859439
20
-104.18288483947548
30
0
10
237.5395275350603
20
-104.2673920068148
30
0
0
SPLINE
5
236
100
AcDbEntity
8
0
100
AcDbSpline
70
0
71
2
72
6
73
3
74
0
42
0.000000001
43
0.0000000001
44
0.0000000001
40
0
40
0
40
0
40
1
40
1
40
1
10
237.5395275350603
20
-104.2673920068148
30
0
10
237.72363197765674
20
-104.32775415211948
30
0
10
238.22765630445804
20
-104.32775415211948
30
0
0
LINE
5
237
100
AcDbEntity
8
0
100
AcDbLine
10
238.22765630445801
20
-104.32775415211948
30
0
11
239.25984930954303
21
-104.32775415211948
31
0
0
SPLINE
5
238
100
AcDbEntity
8
0
100
AcDbSpline
70
0
71
2
72
6
73
3
74
0
42
0.000000001
43
0.0000000001
44
0.0000000001
40
0
40
0
40
0
40
1
40
1
40
1
10
239.25984930954303
20
-104.32775415211947
30
0
10
239.51035213432635
20
-104.32775415211947
30
0
10
239.63560354671802
20
-104.44395132094652
30
0
0
SPLINE
5
239
100
AcDbEntity
8
0
100
AcDbSpline
70
0
71
2
72
6
73
3
74
0
42
0.000000001
43
0.0000000001
44
0.0000000001
40
0
40
0
40
0
40
1
40
1
40
1
10
239.63560354671802
20
-104.44395132094652
30
0
10
239.76085555515613
20
-104.56014848977358
30
0
10
239.76085555515613
20
-104.74425315588744
30
0
0
SPLINE
5
240
100
AcDbEntity
8
0
100
AcDbSpline
70
0
71
2
72
6
73
3
74
0
42
0.000000001
43
0.0000000001
44
0.0000000001
40
0
40
0
40
0
40
1
40
1
40
1
10
239.76085555515613
20
-104.74425315588744
30
0
10
239.76085555515613
20
-104.92232151061327
30
0
10
239.63107657394733
20
-105.03700963884623
30
0
0
SPLINE
5
241
100
AcDbEntity
8
0
100
AcDbSpline
70
0
71
2
72
6
73
3
74
0
42
0.000000001
43
0.0000000001
44
0.0000000001
40
0
40
0
40
0
40
1
40
1
40
1
10
239.63107657394733
20
-105.03700963884623
30
0
10
239.50129818878497
20
-105.15169776707918
30
0
10
239.25984930954303
20
-105.15169776707918
30
0
0
LINE
5
242
100
AcDbEntity
8
0
100
AcDbLine
10
239.259849309543
20
-105.15169776707918
30
0
11
236.87856149635638
21
-105.15169776707918
31
0
0
SPLINE
5
243
100
AcDbEntity
8
0
100
AcDbSpline
70
0
71
2
72
6
73
3
74
0
42
0.000000001
43
0.0000000001
44
0.0000000001
40
0
40
0
40
0
40
1
40
1
40
1
10
236.87856149635638
20
-105.1516977670792
30
0
10
236.64314907751407
20
-105.1516977670792
30
0
10
236.52695190868701
20
-105.04908207535776
30
0
0
SPLINE
5
244
100
AcDbEntity
8
0
100
AcDbSpline
70
0
71
2
72
6
73
3
74
0
42
0.000000001
43
0.0000000001
44
0.0000000001
40
0
40
0
40
0
40
1
40
1
40
1
10
236.52695190868701
20
-105.04908207535776
30
0
10
236.41075473985995
20
-104.94646638363632
30
0
10
236.41075473985995
20
-104.76839795440468
30
0
0
SPLINE
5
245
100
AcDbEntity
8
0
100
AcDbSpline
70
0
71
2
72
6
73
3
74
0
42
0.000000001
43
0.0000000001
44
0.0000000001
40
0
40
0
40
0
40
1
40
1
40
1
10
236.41075473985995
20
-104.76839795440468
30
0
10
236.41075473985995
20
-104.65974606305393
30
0
10
236.46206271610583
20
-104.57222088903221
30
0
0
SPLINE
5
246
100
AcDbEntity
8
0
100
AcDbSpline
70
0
71
2
72
6
73
3
74
0
42
0.000000001
43
0.0000000001
44
0.0000000001
40
0
40
0
40
0
40
1
40
1
40
1
10
236.46206271610583
20
-104.57222088903221
30
0
10
236.51337039432849
20
-104.48469578951629
30
0
10
236.61598604879703
20
-104.43187884718212
30
0
0
SPLINE
5
247
100
AcDbEntity
8
0
100
AcDbSpline
70
0
71
2
72
6
73
3
74
0
42
0.000000001
43
0.0000000001
44
0.0000000001
40
0
40
0
40
0
40
1
40
1
40
1
10
236.61598604879703
20
-104.43187884718212
30
0
10
236.71860170326556
20
-104.37906197935375
30
0
10
236.86648917160358
20
-104.37906197935375
30
0
0
LINE
5
248
100
AcDbEntity
8
0
100
AcDbLine
10
239.2960668798479
20
-99.335802939832519
30
0
11
239.19043254814471
21
-99.335802939832519
31
0
0
SPLINE
5
249
100
AcDbEntity
8
0
100
AcDbSpline
70
0
71
2
72
6
73
3
74
0
42
0.000000001
43
0.0000000001
44
0.0000000001
40
0
40
0
40
0
40
1
40
1
40
1
10
239.19043254814471
20
-99.335802939832519
30
0
10
239.37755536995257
20
-99.483689812124084
30
0
10
239.50431597194995
20
-99.64666798442633
30
0
0
SPLINE
5
250
100
AcDbEntity
8
0
100
AcDbSpline
70
0
71
2
72
6
73
3
74
0
42
0.000000001
43
0.0000000001
44
0.0000000001
40
0
40
0
40
0
40
1
40
1
40
1
10
239.50431597194995
20
-99.64666798442633
30
0
10
239.63107657394733
20
-99.809645560682128
30
0
10
239.69294798336352
20
-100.00280454486639
30
0
0
SPLINE
5
251
100
AcDbEntity
8
0
100
AcDbSpline
70
0
71
2
72
6
73
3
74
0
42
0.000000001
43
0.0000000001
44
0.0000000001
40
0
40
0
40
0
40
1
40
1
40
1
10
239.69294798336352
20
-100.00280454486639
30
0
10
239.75481939277972
20
-100.19596352905066
30
0
10
239.75481939277972
20
-100.44344857066901
30
0
0
SPLINE
5
252
100
AcDbEntity
8
0
100
AcDbSpline
70
0
71
2
72
6
73
3
74
0
42
0.000000001
43
0.0000000001
44
0.0000000001
40
0
40
0
40
0
40
1
40
1
40
1
10
239.75481939277972
20
-100.44344857066901
30
0
10
239.75481939277972
20
-100.74224129051001
30
0
10
239.63107657394733
20
-100.97916289895804
30
0
0
SPLINE
5
253
100
AcDbEntity
8
0
100
AcDbSpline
70
0
71
2
72
6
73
3
74
0
42
0.000000001
43
0.0000000001
44
0.0000000001
40
0
40
0
40
0
40
1
40
1
40
1
10
239.63107657394733
20
-100.97916289895804
30
0
10
239.50733435116138
20
-101.21608420938284
30
0
10
239.29003012142505
20
-101.34586289256842
30
0
0
SPLINE
5
254
100
AcDbEntity
8
0
100
AcDbSpline
70
0
71
2
72
6
73
3
74
0
42
0.000000001
43
0.0000000001
44
0.0000000001
40
0
40
0
40
0
40
1
40
1
40
1
10
239.29003012142505
20
-101.34586289256842
30
0
10
239.02745497188891
20
-101.49978652328284
30
0
10
238.53550326786365
20
-101.49978652328285
30
0
0
LINE
5
255
100
AcDbEntity
8
0
100
AcDbLine
10
238.53550326786365
20
-101.49978652328285
30
0
11
236.90270644388522
21
-101.49978652328285
31
0
0
SPLINE
5
256
100
AcDbEntity
8
0
100
AcDbSpline
70
0
71
2
72
6
73
3
74
0
42
0.000000001
43
0.0000000001
44
0.0000000001
40
0
40
0
40
0
40
1
40
1
40
1
10
236.90270644388522
20
-101.49978652328285
30
0
10
236.6552217002901
20
-101.49978652328285
30
0
10
236.53298807106341
20
-101.38811662524971
30
0
0
SPLINE
5
257
100
AcDbEntity
8
0
100
AcDbSpline
70
0
71
2
72
6
73
3
74
0
42
0.000000001
43
0.0000000001
44
0.0000000001
40
0
40
0
40
0
40
1
40
1
40
1
10
236.53298807106341
20
-101.38811662524971
30
0
10
236.41075473985995
20
-101.27644642919334
30
0
10
236.41075473985995
20
-101.09234198659691
30
0
0
SPLINE
5
258
100
AcDbEntity
8
0
100
AcDbSpline
70
0
71
2
72
6
73
3
74
0
42
0.000000001
43
0.0000000001
44
0.0000000001
40
0
40
0
40
0
40
1
40
1
40
1
10
236.41075473985995
20
-101.09234198659691
30
0
10
236.41075473985995
20
-100.90521916478905
30
0
10
236.53449726066913
20
-100.7905311855677
30
0
0
SPLINE
5
259
100
AcDbEntity
8
0
100
AcDbSpline
70
0
71
2
72
6
73
3
74
0
42
0.000000001
43
0.0000000001
44
0.0000000001
40
0
40
0
40
0
40
1
40
1
40
1
10
236.53449726066913
20
-100.7905311855677
30
0
10
236.6582397814783
20
-100.67584290832313
30
0
10
236.90270644388522
20
-100.67584290832313
30
0
0
LINE
5
260
100
AcDbEntity
8
0
100
AcDbLine
10
236.90270644388522
20
-100.67584290832313
30
0
11
238.22161984405841
21
-100.67584290832313
31
0
0
SPLINE
5
261
100
AcDbEntity
8
0
100
AcDbSpline
70
0
71
2
72
6
73
3
74
0
42
0.000000001
43
0.0000000001
44
0.0000000001
40
0
40
0
40
0
40
1
40
1
40
1
10
238.22161984405841
20
-100.67584290832313
30
0
10
238.50834023914661
20
-100.67584290832313
30
0
10
238.70300841293658
20
-100.62755301326544
30
0
0
SPLINE
5
262
100
AcDbEntity
8
0
100
AcDbSpline
70
0
71
2
72
6
73
3
74
0
42
0.000000001
43
0.0000000001
44
0.0000000001
40
0
40
0
40
0
40
1
40
1
40
1
10
238.70300841293658
20
-100.62755301326544
30
0
10
238.89767599068011
20
-100.57926341623099
30
0
10
239.00783729515399
20
-100.4540117058161
30
0
0
SPLINE
5
263
100
AcDbEntity
8
0
100
AcDbSpline
70
0
71
2
72
6
73
3
74
0
42
0.000000001
43
0.0000000001
44
0.0000000001
40
0
40
0
40
0
40
1
40
1
40
1
10
239.00783729515399
20
-100.4540117058161
30
0
10
239.11799800358142
20
-100.32876029342444
30
0
10
239.11799800358142
20
-100.11447444289954
30
0
0
SPLINE
5
264
100
AcDbEntity
8
0
100
AcDbSpline
70
0
71
2
72
6
73
3
74
0
42
0.000000001
43
0.0000000001
44
0.0000000001
40
0
40
0
40
0
40
1
40
1
40
1
10
239.11799800358142
20
-100.11447444289954
30
0
10
239.11799800358142
20
-99.906225350797484
30
0
10
238.99425578079547
20
-99.722120908201049
30
0
0
SPLINE
5
265
100
AcDbEntity
8
0
100
AcDbSpline
70
0
71
2
72
6
73
3
74
0
42
0.000000001
43
0.0000000001
44
0.0000000001
40
0
40
0
40
0
40
1
40
1
40
1
10
238.99425578079547
20
-99.722120908201049
30
0
10
238.87051355800952
20
-99.538015869558166
30
0
10
238.67131811342563
20
-99.453509000242065
30
0
0
SPLINE
5
266
100
AcDbEntity
8
0
100
AcDbSpline
70
0
71
2
72
6
73
3
74
0
42
0.000000001
43
0.0000000001
44
0.0000000001
40
0
40
0
40
0
40
1
40
1
40
1
10
238.67131811342563
20
-99.453509000242065
30
0
10
238.4962679143938
20
-99.384092238843763
30
0
10
237.90471863708819
20
-99.384092238843763
30
0
0
LINE
5
267
100
AcDbEntity
8
0
100
AcDbLine
10
237.90471863708817
20
-99.384092238843763
30
0
11
236.90270644388522
21
-99.384092238843763
31
0
0
SPLINE
5
268
100
AcDbEntity
8
0
100
AcDbSpline
70
0
71
2
72
6
73
3
74
0
42
0.000000001
43
0.0000000001
44
0.0000000001
40
0
40
0
40
0
40
1
40
1
40
1
10
236.90270644388522
20
-99.384092238843763
30
0
10
236.6582397814783
20
-99.384092238843763
30
0
10
236.53449726066913
20
-99.269404557645643
30
0
0
SPLINE
5
269
100
AcDbEntity
8
0
100
AcDbSpline
70
0
71
2
72
6
73
3
74
0
42
0.000000001
43
0.0000000001
44
0.0000000001
40
0
40
0
40
0
40
1
40
1
40
1
10
236.53449726066913
20
-99.269404557645643
30
0
10
236.41075473985995
20
-99.154716280401075
30
0
10
236.41075473985995
20
-98.970611241758192
30
0
0
SPLINE
5
270
100
AcDbEntity
8
0
100
AcDbSpline
70
0
71
2
72
6
73
3
74
0
42
0.000000001
43
0.0000000001
44
0.0000000001
40
0
40
0
40
0
40
1
40
1
40
1
10
236.41075473985995
20
-98.970611241758192
30
0
10
236.41075473985995
20
-98.786506799161756
30
0
10
236.53298807106341
20
-98.674836901128614
30
0
0
SPLINE
5
271
100
AcDbEntity
8
0
100
AcDbSpline
70
0
71
2
72
6
73
3
74
0
42
0.000000001
43
0.0000000001
44
0.0000000001
40
0
40
0
40
0
40
1
40
1
40
1
10
236.53298807106341
20
-98.674836901128614
30
0
10
236.6552217002901
20
-98.563167003095472
30
0
10
236.90270644388522
20
-98.563167003095472
30
0
0
LINE
5
272
100
AcDbEntity
8
0
100
AcDbLine
10
236.90270644388522
20
-98.563167003095472
30
0
11
239.29003012142505
21
-98.563167003095472
31
0
0
SPLINE
5
273
100
AcDbEntity
8
0
100
AcDbSpline
70
0
71
2
72
6
73
3
74
0
42
0.000000001
43
0.0000000001
44
0.0000000001
40
0
40
0
40
0
40
1
40
1
40
1
10
239.29003012142505
20
-98.563167003095458
30
0
10
239.52544283829059
20
-98.563167003095458
30
0
10
239.64314889870013
20
-98.670309928357909
30
0
0
SPLINE
5
274
100
AcDbEntity
8
0
100
AcDbSpline
70
0
71
2
72
6
73
3
74
0
42
0.000000001
43
0.0000000001
44
0.0000000001
40
0
40
0
40
0
40
1
40
1
40
1
10
239.64314889870013
20
-98.670309928357909
30
0
10
239.76085555515613
20
-98.77745285362036
30
0
10
239.76085555515613
20
-98.946466592252563
30
0
0
SPLINE
5
275
100
AcDbEntity
8
0
100
AcDbSpline
70
0
71
2
72
6
73
3
74
0
42
0.000000001
43
0.0000000001
44
0.0000000001
40
0
40
0
40
0
40
1
40
1
40
1
10
239.76085555515613
20
-98.946466592252563
30
0
10
239.76085555515613
20
-99.115480926931212
30
0
10
239.63862192592944
20
-99.225641635358642
30
0
0
SPLINE
5
276
100
AcDbEntity
8
0
100
AcDbSpline
70
0
71
2
72
6
73
3
74
0
42
0.000000001
43
0.0000000001
44
0.0000000001
40
0
40
0
40
0
40
1
40
1
40
1
10
239.63862192592944
20
-99.225641635358642
30
0
10
239.51638829670276
20
-99.335802939832519
30
0
10
239.2960668798479
20
-99.335802939832519
30
0
0
LINE
5
277
100
AcDbEntity
8
0
100
AcDbLine
10
239.25984930954303
20
-97.742241171300719
30
0
11
235.68640869818057
21
-97.742241171300719
31
0
0
SPLINE
5
278
100
AcDbEntity
8
0
100
AcDbSpline
70
0
71
2
72
6
73
3
74
0
42
0.000000001
43
0.0000000001
44
0.0000000001
40
0
40
0
40
0
40
1
40
1
40
1
10
235.68640869818057
20
-97.742241171300734
30
0
10
235.43892395458545
20
-97.742241171300734
30
0
10
235.31216335258807
20
-97.632080462873304
30
0
0
SPLINE
5
279
100
AcDbEntity
8
0
100
AcDbSpline
70
0
71
2
72
6
73
3
74
0
42
0.000000001
43
0.0000000001
44
0.0000000001
40
0
40
0
40
0
40
1
40
1
40
1
10
235.31216335258807
20
-97.632080462873304
30
0
10
235.1854027505907
20
-97.521919158399427
30
0
10
235.1854027505907
20
-97.334796336591566
30
0
0
SPLINE
5
280
100
AcDbEntity
8
0
100
AcDbSpline
70
0
71
2
72
6
73
3
74
0
42
0.000000001
43
0.0000000001
44
0.0000000001
40
0
40
0
40
0
40
1
40
1
40
1
10
235.1854027505907
20
-97.334796336591566
30
0
10
235.1854027505907
20
-97.147673514783705
30
0
10
235.31065416298236
20
-97.032985833585585
30
0
0
SPLINE
5
281
100
AcDbEntity
8
0
100
AcDbSpline
70
0
71
2
72
6
73
3
74
0
42
0.000000001
43
0.0000000001
44
0.0000000001
40
0
40
0
40
0
40
1
40
1
40
1
10
235.31065416298236
20
-97.032985833585585
30
0
10
235.43590557537402
20
-96.918297556341017
30
0
10
235.68640869818057
20
-96.918297556341017
30
0
0
LINE
5
282
100
AcDbEntity
8
0
100
AcDbLine
10
235.68640869818057
20
-96.918297556341017
30
0
11
239.25984930954303
21
-96.918297556341017
31
0
0
SPLINE
5
283
100
AcDbEntity
8
0
100
AcDbSpline
70
0
71
2
72
6
73
3
74
0
42
0.000000001
43
0.0000000001
44
0.0000000001
40
0
40
0
40
0
40
1
40
1
40
1
10
239.25984930954303
20
-96.918297556341003
30
0
10
239.51035213432635
20
-96.918297556341003
30
0
10
239.63560354671802
20
-97.034495023191283
30
0
0
SPLINE
5
284
100
AcDbEntity
8
0
100
AcDbSpline
70
0
71
2
72
6
73
3
74
0
42
0.000000001
43
0.0000000001
44
0.0000000001
40
0
40
0
40
0
40
1
40
1
40
1
10
239.63560354671802
20
-97.034495023191283
30
0
10
239.76085555515613
20
-97.150691893995116
30
0
10
239.76085555515613
20
-97.334796336591552
30
0
0
SPLINE
5
285
100
AcDbEntity
8
0
100
AcDbSpline
70
0
71
2
72
6
73
3
74
0
42
0.000000001
43
0.0000000001
44
0.0000000001
40
0
40
0
40
0
40
1
40
1
40
1
10
239.76085555515613
20
-97.334796336591552
30
0
10
239.76085555515613
20
-97.515882996023009
30
0
10
239.63107657394733
20
-97.629062083661864
30
0
0
SPLINE
5
286
100
AcDbEntity
8
0
100
AcDbSpline
70
0
71
2
72
6
73
3
74
0
42
0.000000001
43
0.0000000001
44
0.0000000001
40
0
40
0
40
0
40
1
40
1
40
1
10
239.63107657394733
20
-97.629062083661864
30
0
10
239.50129818878497
20
-97.742241171300719
30
0
10
239.25984930954303
20
-97.742241171300719
30
0
0
LINE
5
287
100
AcDbEntity
8
0
100
AcDbLine
10
239.25984930954303
20
-96.067190912664245
30
0
11
235.68640869818057
21
-96.067190912664245
31
0
0
SPLINE
5
288
100
AcDbEntity
8
0
100
AcDbSpline
70
0
71
2
72
6
73
3
74
0
42
0.000000001
43
0.0000000001
44
0.0000000001
40
0
40
0
40
0
40
1
40
1
40
1
10
235.68640869818057
20
-96.067190912664259
30
0
10
235.43892395458545
20
-96.067190912664259
30
0
10
235.31216335258807
20
-95.95703020423683
30
0
0
SPLINE
5
289
100
AcDbEntity
8
0
100
AcDbSpline
70
0
71
2
72
6
73
3
74
0
42
0.000000001
43
0.0000000001
44
0.0000000001
40
0
40
0
40
0
40
1
40
1
40
1
10
235.31216335258807
20
-95.95703020423683
30
0
10
235.1854027505907
20
-95.846868899762953
30
0
10
235.1854027505907
20
-95.659746077955091
30
0
0
SPLINE
5
290
100
AcDbEntity
8
0
100
AcDbSpline
70
0
71
2
72
6
73
3
74
0
42
0.000000001
43
0.0000000001
44
0.0000000001
40
0
40
0
40
0
40
1
40
1
40
1
10
235.1854027505907
20
-95.659746077955091
30
0
10
235.1854027505907
20
-95.47262325614723
30
0
10
235.31065416298236
20
-95.35793557494911
30
0
0
SPLINE
5
291
100
AcDbEntity
8
0
100
AcDbSpline
70
0
71
2
72
6
73
3
74
0
42
0.000000001
43
0.0000000001
44
0.0000000001
40
0
40
0
40
0
40
1
40
1
40
1
10
235.31065416298236
20
-95.35793557494911
30
0
10
235.43590557537402
20
-95.24324789375099
30
0
10
235.68640869818057
20
-95.24324789375099
30
0
0
LINE
5
292
100
AcDbEntity
8
0
100
AcDbLine
10
235.68640869818057
20
-95.24324789375099
30
0
11
239.25984930954303
21
-95.24324789375099
31
0
0
SPLINE
5
293
100
AcDbEntity
8
0
100
AcDbSpline
70
0
71
2
72
6
73
3
74
0
42
0.000000001
43
0.0000000001
44
0.0000000001
40
0
40
0
40
0
40
1
40
1
40
1
10
239.25984930954303
20
-95.243247893750976
30
0
10
239.51035213432635
20
-95.243247893750976
30
0
10
239.63560354671802
20
-95.359444764554809
30
0
0
SPLINE
5
294
100
AcDbEntity
8
0
100
AcDbSpline
70
0
71
2
72
6
73
3
74
0
42
0.000000001
43
0.0000000001
44
0.0000000001
40
0
40
0
40
0
40
1
40
1
40
1
10
239.63560354671802
20
-95.359444764554809
30
0
10
239.76085555515613
20
-95.475641635358642
30
0
10
239.76085555515613
20
-95.659746077955077
30
0
0
SPLINE
5
295
100
AcDbEntity
8
0
100
AcDbSpline
70
0
71
2
72
6
73
3
74
0
42
0.000000001
43
0.0000000001
44
0.0000000001
40
0
40
0
40
0
40
1
40
1
40
1
10
239.76085555515613
20
-95.659746077955077
30
0
10
239.76085555515613
20
-95.840832737386535
30
0
10
239.63107657394733
20
-95.95401182502539
30
0
0
SPLINE
5
296
100
AcDbEntity
8
0
100
AcDbSpline
70
0
71
2
72
6
73
3
74
0
42
0.000000001
43
0.0000000001
44
0.0000000001
40
0
40
0
40
0
40
1
40
1
40
1
10
239.63107657394733
20
-95.95401182502539
30
0
10
239.50129818878497
20
-96.067190912664245
30
0
10
239.25984930954303
20
-96.067190912664245
30
0
0
LINE
5
297
100
AcDbEntity
8
0
100
AcDbLine
10
239.2960668798479
20
-92.252302316129516
30
0
11
239.19043254814471
21
-92.252302316129516
31
0
0
SPLINE
5
298
100
AcDbEntity
8
0
100
AcDbSpline
70
0
71
2
72
6
73
3
74
0
42
0.000000001
43
0.0000000001
44
0.0000000001
40
0
40
0
40
0
40
1
40
1
40
1
10
239.19043254814471
20
-92.252302316129516
30
0
10
239.37755536995257
20
-92.400189784467528
30
0
10
239.50431597194995
20
-92.563166764676879
30
0
0
SPLINE
5
299
100
AcDbEntity
8
0
100
AcDbSpline
70
0
71
2
72
6
73
3
74
0
42
0.000000001
43
0.0000000001
44
0.0000000001
40
0
40
0
40
0
40
1
40
1
40
1
10
239.50431597194995
20
-92.563166764676879
30
0
10
239.63107657394733
20
-92.726144936979125
30
0
10
239.69294798336352
20
-92.919304517209838
30
0
0
SPLINE
5
300
100
AcDbEntity
8
0
100
AcDbSpline
70
0
71
2
72
6
73
3
74
0
42
0.000000001
43
0.0000000001
44
0.0000000001
40
0
40
0
40
0
40
1
40
1
40
1
10
239.69294798336352
20
-92.919304517209838
30
0
10
239.75481939277972
20
-93.112462905347655
30
0
10
239.75481939277972
20
-93.359947350919555
30
0
0
SPLINE
5
301
100
AcDbEntity
8
0
100
AcDbSpline
70
0
71
2
72
6
73
3
74
0
42
0.000000001
43
0.0000000001
44
0.0000000001
40
0
40
0
40
0
40
1
40
1
40
1
10
239.75481939277972
20
-93.359947350919555
30
0
10
239.75481939277972
20
-93.658740666807006
30
0
10
239.63107657394733
20
-93.895661977231811
30
0
0
SPLINE
5
302
100
AcDbEntity
8
0
100
AcDbSpline
70
0
71
2
72
6
73
3
74
0
42
0.000000001
43
0.0000000001
44
0.0000000001
40
0
40
0
40
0
40
1
40
1
40
1
10
239.63107657394733
20
-93.895661977231811
30
0
10
239.50733435116138
20
-94.132583287656615
30
0
10
239.29003012142505
20
-94.262362864911864
30
0
0
SPLINE
5
303
100
AcDbEntity
8
0
100
AcDbSpline
70
0
71
2
72
6
73
3
74
0
42
0.000000001
43
0.0000000001
44
0.0000000001
40
0
40
0
40
0
40
1
40
1
40
1
10
239.29003012142505
20
-94.262362864911864
30
0
10
239.02745497188891
20
-94.416285899579833
30
0
10
238.53550326786365
20
-94.416285899579833
30
0
0
LINE
5
304
100
AcDbEntity
8
0
100
AcDbLine
10
238.53550326786365
20
-94.416285899579833
30
0
11
236.90270644388522
21
-94.416285899579833
31
0
0
SPLINE
5
305
100
AcDbEntity
8
0
100
AcDbSpline
70
0
71
2
72
6
73
3
74
0
42
0.000000001
43
0.0000000001
44
0.0000000001
40
0
40
0
40
0
40
1
40
1
40
1
10
236.90270644388522
20
-94.416285899579847
30
0
10
236.6552217002901
20
-94.416285899579847
30
0
10
236.53298807106341
20
-94.304615405500257
30
0
0
SPLINE
5
306
100
AcDbEntity
8
0
100
AcDbSpline
70
0
71
2
72
6
73
3
74
0
42
0.000000001
43
0.0000000001
44
0.0000000001
40
0
40
0
40
0
40
1
40
1
40
1
10
236.53298807106341
20
-94.304615405500257
30
0
10
236.41075473985995
20
-94.192946103513563
30
0
10
236.41075473985995
20
-94.008841660917128
30
0
0
SPLINE
5
307
100
AcDbEntity
8
0
100
AcDbSpline
70
0
71
2
72
6
73
3
74
0
42
0.000000001
43
0.0000000001
44
0.0000000001
40
0
40
0
40
0
40
1
40
1
40
1
10
236.41075473985995
20
-94.008841660917128
30
0
10
236.41075473985995
20
-93.821718839109266
30
0
10
236.53449726066913
20
-93.707029965818251
30
0
0
SPLINE
5
308
100
AcDbEntity
8
0
100
AcDbSpline
70
0
71
2
72
6
73
3
74
0
42
0.000000001
43
0.0000000001
44
0.0000000001
40
0
40
0
40
0
40
1
40
1
40
1
10
236.53449726066913
20
-93.707029965818251
30
0
10
236.6582397814783
20
-93.59234228462013
30
0
10
236.90270644388522
20
-93.59234228462013
30
0
0
LINE
5
309
100
AcDbEntity
8
0
100
AcDbLine
10
236.90270644388522
20
-93.59234228462013
30
0
11
238.22161984405841
21
-93.59234228462013
31
0
0
SPLINE
5
310
100
AcDbEntity
8
0
100
AcDbSpline
70
0
71
2
72
6
73
3
74
0
42
0.000000001
43
0.0000000001
44
0.0000000001
40
0
40
0
40
0
40
1
40
1
40
1
10
238.22161984405841
20
-93.592342284620116
30
0
10
238.50834023914661
20
-93.592342284620116
30
0
10
238.70300841293658
20
-93.544052985608886
30
0
0
SPLINE
5
311
100
AcDbEntity
8
0
100
AcDbSpline
70
0
71
2
72
6
73
3
74
0
42
0.000000001
43
0.0000000001
44
0.0000000001
40
0
40
0
40
0
40
1
40
1
40
1
10
238.70300841293658
20
-93.544052985608886
30
0
10
238.89767599068011
20
-93.49576249450476
30
0
10
239.00783729515399
20
-93.370511678159545
30
0
0
SPLINE
5
312
100
AcDbEntity
8
0
100
AcDbSpline
70
0
71
2
72
6
73
3
74
0
42
0.000000001
43
0.0000000001
44
0.0000000001
40
0
40
0
40
0
40
1
40
1
40
1
10
239.00783729515399
20
-93.370511678159545
30
0
10
239.11799800358142
20
-93.245259669721435
30
0
10
239.11799800358142
20
-93.030973819196532
30
0
0
SPLINE
5
313
100
AcDbEntity
8
0
100
AcDbSpline
70
0
71
2
72
6
73
3
74
0
42
0.000000001
43
0.0000000001
44
0.0000000001
40
0
40
0
40
0
40
1
40
1
40
1
10
239.11799800358142
20
-93.030973819196532
30
0
10
239.11799800358142
20
-92.822724727094482
30
0
10
238.99425578079547
20
-92.638620284498046
30
0
0
SPLINE
5
314
100
AcDbEntity
8
0
100
AcDbSpline
70
0
71
2
72
6
73
3
74
0
42
0.000000001
43
0.0000000001
44
0.0000000001
40
0
40
0
40
0
40
1
40
1
40
1
10
238.99425578079547
20
-92.638620284498046
30
0
10
238.87051355800952
20
-92.45451584190161
30
0
10
238.67131811342563
20
-92.370008376539062
30
0
0
SPLINE
5
315
100
AcDbEntity
8
0
100
AcDbSpline
70
0
71
2
72
6
73
3
74
0
42
0.000000001
43
0.0000000001
44
0.0000000001
40
0
40
0
40
0
40
1
40
1
40
1
10
238.67131811342563
20
-92.370008376539062
30
0
10
238.4962679143938
20
-92.300591615140746
30
0
10
237.90471863708819
20
-92.30059161514076
30
0
0
LINE
5
316
100
AcDbEntity
8
0
100
AcDbLine
10
237.90471863708817
20
-92.30059161514076
30
0
11
236.90270644388522
21
-92.30059161514076
31
0
0
SPLINE
5
317
100
AcDbEntity
8
0
100
AcDbSpline
70
0
71
2
72
6
73
3
74
0
42
0.000000001
43
0.0000000001
44
0.0000000001
40
0
40
0
40
0
40
1
40
1
40
1
10
236.90270644388522
20
-92.30059161514076
30
0
10
236.6582397814783
20
-92.30059161514076
30
0
10
236.53449726066913
20
-92.18590393394264
30
0
0
SPLINE
5
318
100
AcDbEntity
8
0
100
AcDbSpline
70
0
71
2
72
6
73
3
74
0
42
0.000000001
43
0.0000000001
44
0.0000000001
40
0
40
0
40
0
40
1
40
1
40
1
10
236.53449726066913
20
-92.18590393394264
30
0
10
236.41075473985995
20
-92.071215060651625
30
0
10
236.41075473985995
20
-91.887110618055189
30
0
0
SPLINE
5
319
100
AcDbEntity
8
0
100
AcDbSpline
70
0
71
2
72
6
73
3
74
0
42
0.000000001
43
0.0000000001
44
0.0000000001
40
0
40
0
40
0
40
1
40
1
40
1
10
236.41075473985995
20
-91.887110618055189
30
0
10
236.41075473985995
20
-91.703006175458754
30
0
10
236.53298807106341
20
-91.591335681379164
30
0
0
SPLINE
5
320
100
AcDbEntity
8
0
100
AcDbSpline
70
0
71
2
72
6
73
3
74
0
42
0.000000001
43
0.0000000001
44
0.0000000001
40
0
40
0
40
0
40
1
40
1
40
1
10
236.53298807106341
20
-91.591335681379164
30
0
10
236.6552217002901
20
-91.479666379392469
30
0
10
236.90270644388522
20
-91.479666379392469
30
0
0
LINE
5
321
100
AcDbEntity
8
0
100
AcDbLine
10
236.90270644388522
20
-91.479666379392469
30
0
11
239.29003012142505
21
-91.479666379392469
31
0
0
SPLINE
5
322
100
AcDbEntity
8
0
100
AcDbSpline
70
0
71
2
72
6
73
3
74
0
42
0.000000001
43
0.0000000001
44
0.0000000001
40
0
40
0
40
0
40
1
40
1
40
1
10
239.29003012142505
20
-91.479666379392455
30
0
10
239.52544283829059
20
-91.479666379392455
30
0
10
239.64314889870013
20
-91.586809304654906
30
0
0
SPLINE
5
323
100
AcDbEntity
8
0
100
AcDbSpline
70
0
71
2
72
6
73
3
74
0
42
0.000000001
43
0.0000000001
44
0.0000000001
40
0
40
0
40
0
40
1
40
1
40
1
10
239.64314889870013
20
-91.586809304654906
30
0
10
239.76085555515613
20
-91.693952229917357
30
0
10
239.76085555515613
20
-91.86296596854956
30
0
0
SPLINE
5
324
100
AcDbEntity
8
0
100
AcDbSpline
70
0
71
2
72
6
73
3
74
0
42
0.000000001
43
0.0000000001
44
0.0000000001
40
0
40
0
40
0
40
1
40
1
40
1
10
239.76085555515613
20
-91.86296596854956
30
0
10
239.76085555515613
20
-92.031979707181762
30
0
10
239.63862192592944
20
-92.142141011655639
30
0
0
SPLINE
5
325
100
AcDbEntity
8
0
100
AcDbSpline
70
0
71
2
72
6
73
3
74
0
42
0.000000001
43
0.0000000001
44
0.0000000001
40
0
40
0
40
0
40
1
40
1
40
1
10
239.63862192592944
20
-92.142141011655639
30
0
10
239.51638829670276
20
-92.252302316129516
30
0
10
239.2960668798479
20
-92.252302316129516
30
0
0
SPLINE
5
326
100
AcDbEntity
8
0
100
AcDbSpline
70
0
71
2
72
6
73
3
74
0
42
0.000000001
43
0.0000000001
44
0.0000000001
40
0
40
0
40
0
40
1
40
1
40
1
10
238.68339073620166
20
-88.005823043287108
30
0
10
239.02443659267749
20
-88.005823043287108
30
0
10
239.26739466152515
20
-88.171818402707885
30
0
0
SPLINE
5
327
100
AcDbEntity
8
0
100
AcDbSpline
70
0
71
2
72
6
73
3
74
0
42
0.000000001
43
0.0000000001
44
0.0000000001
40
0
40
0
40
0
40
1
40
1
40
1
10
239.26739466152515
20
-88.171818402707885
30
0
10
239.51035213432635
20
-88.337813762128661
30
0
10
239.63560354671802
20
-88.662260917127441
30
0
0
SPLINE
5
328
100
AcDbEntity
8
0
100
AcDbSpline
70
0
71
2
72
6
73
3
74
0
42
0.000000001
43
0.0000000001
44
0.0000000001
40
0
40
0
40
0
40
1
40
1
40
1
10
239.63560354671802
20
-88.662260917127441
30
0
10
239.76085555515613
20
-88.98670807212622
30
0
10
239.76085555515613
20
-89.451496747434447
30
0
0
SPLINE
5
329
100
AcDbEntity
8
0
100
AcDbSpline
70
0
71
2
72
6
73
3
74
0
42
0.000000001
43
0.0000000001
44
0.0000000001
40
0
40
0
40
0
40
1
40
1
40
1
10
239.76085555515613
20
-89.451496747434447
30
0
10
239.76085555515613
20
-89.89515796035559
30
0
10
239.62504041157092
20
-90.2120603594187
30
0
0
SPLINE
5
330
100
AcDbEntity
8
0
100
AcDbSpline
70
0
71
2
72
6
73
3
74
0
42
0.000000001
43
0.0000000001
44
0.0000000001
40
0
40
0
40
0
40
1
40
1
40
1
10
239.62504041157092
20
-90.2120603594187
30
0
10
239.48922586403216
20
-90.528961566388915
30
0
10
239.28550314865436
20
-90.679866221845458
30
0
0
SPLINE
5
331
100
AcDbEntity
8
0
100
AcDbSpline
70
0
71
2
72
6
73
3
74
0
42
0.000000001
43
0.0000000001
44
0.0000000001
40
0
40
0
40
0
40
1
40
1
40
1
10
239.28550314865436
20
-90.679866221845458
30
0
10
239.081781029323
20
-90.830772069394897
30
0
10
238.87654972038592
20
-90.830772069394897
30
0
0
SPLINE
5
332
100
AcDbEntity
8
0
100
AcDbSpline
70
0
71
2
72
6
73
3
74
0
42
0.000000001
43
0.0000000001
44
0.0000000001
40
0
40
0
40
0
40
1
40
1
40
1
10
238.87654972038592
20
-90.830772069394897
30
0
10
238.74073457680072
20
-90.830772069394897
30
0
10
238.64415508470859
20
-90.73419227927954
30
0
0
SPLINE
5
333
100
AcDbEntity
8
0
100
AcDbSpline
70
0
71
2
72
6
73
3
74
0
42
0.000000001
43
0.0000000001
44
0.0000000001
40
0
40
0
40
0
40
1
40
1
40
1
10
238.64415508470859
20
-90.73419227927954
30
0
10
238.54757559261645
20
-90.637613681257079
30
0
10
238.54757559261645
20
-90.489726212919066
30
0
0
SPLINE
5
334
100
AcDbEntity
8
0
100
AcDbSpline
70
0
71
2
72
6
73
3
74
0
42
0.000000001
43
0.0000000001
44
0.0000000001
40
0
40
0
40
0
40
1
40
1
40
1
10
238.54757559261645
20
-90.489726212919066
30
0
10
238.54757559261645
20
-90.359946635663817
30
0
10
238.61095589361514
20
-90.290531066358398
30
0
0
SPLINE
5
335
100
AcDbEntity
8
0
100
AcDbSpline
70
0
71
2
72
6
73
3
74
0
42
0.000000001
43
0.0000000001
44
0.0000000001
40
0
40
0
40
0
40
1
40
1
40
1
10
238.61095589361514
20
-90.290531066358398
30
0
10
238.67433619461383
20
-90.221114304960082
30
0
10
238.7890244718584
20
-90.157734301984618
30
0
0
SPLINE
5
336
100
AcDbEntity
8
0
100
AcDbSpline
70
0
71
2
72
6
73
3
74
0
42
0.000000001
43
0.0000000001
44
0.0000000001
40
0
40
0
40
0
40
1
40
1
40
1
10
238.7890244718584
20
-90.157734301984618
30
0
10
239.0093464847597
20
-90.030973103940795
30
0
10
239.11799800358142
20
-89.854413417280028
30
0
0
SPLINE
5
337
100
AcDbEntity
8
0
100
AcDbSpline
70
0
71
2
72
6
73
3
74
0
42
0.000000001
43
0.0000000001
44
0.0000000001
40
0
40
0
40
0
40
1
40
1
40
1
10
239.11799800358142
20
-89.854413417280028
30
0
10
239.22665011844958
20
-89.677854922712157
30
0
10
239.22665011844958
20
-89.37302604049475
30
0
0
SPLINE
5
338
100
AcDbEntity
8
0
100
AcDbSpline
70
0
71
2
72
6
73
3
74
0
42
0.000000001
43
0.0000000001
44
0.0000000001
40
0
40
0
40
0
40
1
40
1
40
1
10
239.22665011844958
20
-89.37302604049475
30
0
10
239.22665011844958
20
-89.125540402829955
30
0
10
239.11648941002215
20
-88.967089799344848
30
0
0
SPLINE
5
339
100
AcDbEntity
8
0
100
AcDbSpline
70
0
71
2
72
6
73
3
74
0
42
0.000000001
43
0.0000000001
44
0.0000000001
40
0
40
0
40
0
40
1
40
1
40
1
10
239.11648941002215
20
-88.967089799344848
30
0
10
239.00632810554828
20
-88.80863919585974
30
0
10
238.86447739563312
20
-88.80863919585974
30
0
0
SPLINE
5
340
100
AcDbEntity
8
0
100
AcDbSpline
70
0
71
2
72
6
73
3
74
0
42
0.000000001
43
0.0000000001
44
0.0000000001
40
0
40
0
40
0
40
1
40
1
40
1
10
238.86447739563312
20
-88.80863919585974
30
0
10
238.64717316589679
20
-88.80863919585974
30
0
10
238.54757559261645
20
-88.973126557767699
30
0
0
SPLINE
5
341
100
AcDbEntity
8
0
100
AcDbSpline
70
0
71
2
72
6
73
3
74
0
42
0.000000001
43
0.0000000001
44
0.0000000001
40
0
40
0
40
0
40
1
40
1
40
1
10
238.54757559261645
20
-88.973126557767699
30
0
10
238.44797801933612
20
-89.137612727582763
30
0
10
238.35743498764361
20
-89.514876750409911
30
0
0
SPLINE
5
342
100
AcDbEntity
8
0
100
AcDbSpline
70
0
71
2
72
6
73
3
74
0
42
0.000000001
43
0.0000000001
44
0.0000000001
40
0
40
0
40
0
40
1
40
1
40
1
10
238.35743498764361
20
-89.514876750409911
30
0
10
238.25180125198688
20
-89.94043007224829
30
0
10
238.1356037851366
20
-90.207532790601576
30
0
0
SPLINE
5
343
100
AcDbEntity
8
0
100
AcDbSpline
70
0
71
2
72
6
73
3
74
0
42
0.000000001
43
0.0000000001
44
0.0000000001
40
0
40
0
40
0
40
1
40
1
40
1
10
238.1356037851366
20
-90.207532790601576
30
0
10
238.01940691433276
20
-90.474635508954847
30
0
10
237.82926571331348
20
-90.634595302045668
30
0
0
SPLINE
5
344
100
AcDbEntity
8
0
100
AcDbSpline
70
0
71
2
72
6
73
3
74
0
42
0.000000001
43
0.0000000001
44
0.0000000001
40
0
40
0
40
0
40
1
40
1
40
1
10
237.82926571331348
20
-90.634595302045668
30
0
10
237.63912510834064
20
-90.794555095136488
30
0
10
237.36145925484027
20
-90.794555095136488
30
0
0
SPLINE
5
345
100
AcDbEntity
8
0
100
AcDbSpline
70
0
71
2
72
6
73
3
74
0
42
0.000000001
43
0.0000000001
44
0.0000000001
40
0
40
0
40
0
40
1
40
1
40
1
10
237.36145925484027
20
-90.794555095136488
30
0
10
237.1139739151987
20
-90.794555095136488
30
0
10
236.89365220032062
20
-90.646667626798475
30
0
0
SPLINE
5
346
100
AcDbEntity
8
0
100
AcDbSpline
70
0
71
2
72
6
73
3
74
0
42
0.000000001
43
0.0000000001
44
0.0000000001
40
0
40
0
40
0
40
1
40
1
40
1
10
236.89365220032062
20
-90.646667626798475
30
0
10
236.67333018741931
20
-90.498780158460463
30
0
10
236.54204261265124
20
-90.210551169813002
30
0
0
SPLINE
5
347
100
AcDbEntity
8
0
100
AcDbSpline
70
0
71
2
72
6
73
3
74
0
42
0.000000001
43
0.0000000001
44
0.0000000001
40
0
40
0
40
0
40
1
40
1
40
1
10
236.54204261265124
20
-90.210551169813002
30
0
10
236.41075473985995
20
-89.922320989072645
30
0
10
236.41075473985995
20
-89.514876750409925
30
0
0
SPLINE
5
348
100
AcDbEntity
8
0
100
AcDbSpline
70
0
71
2
72
6
73
3
74
0
42
0.000000001
43
0.0000000001
44
0.0000000001
40
0
40
0
40
0
40
1
40
1
40
1
10
236.41075473985995
20
-89.514876750409925
30
0
10
236.41075473985995
20
-89.194957164228285
30
0
10
236.47715312204684
20
-88.939926770627821
30
0
0
SPLINE
5
349
100
AcDbEntity
8
0
100
AcDbSpline
70
0
71
2
72
6
73
3
74
0
42
0.000000001
43
0.0000000001
44
0.0000000001
40
0
40
0
40
0
40
1
40
1
40
1
10
236.47715312204684
20
-88.939926770627821
30
0
10
236.54355150423373
20
-88.684896377027357
30
0
10
236.6552217002901
20
-88.514373448789442
30
0
0
SPLINE
5
350
100
AcDbEntity
8
0
100
AcDbSpline
70
0
71
2
72
6
73
3
74
0
42
0.000000001
43
0.0000000001
44
0.0000000001
40
0
40
0
40
0
40
1
40
1
40
1
10
236.6552217002901
20
-88.514373448789442
30
0
10
236.76689159832324
20
-88.343850520551527
30
0
10
236.90270644388522
20
-88.254816678464735
30
0
0
SPLINE
5
351
100
AcDbEntity
8
0
100
AcDbSpline
70
0
71
2
72
6
73
3
74
0
42
0.000000001
43
0.0000000001
44
0.0000000001
40
0
40
0
40
0
40
1
40
1
40
1
10
236.90270644388522
20
-88.254816678464735
30
0
10
237.0385212894472
20
-88.165782836377943
30
0
10
237.16829997263278
20
-88.165782836377943
30
0
0
SPLINE
5
352
100
AcDbEntity
8
0
100
AcDbSpline
70
0
71
2
72
6
73
3
74
0
42
0.000000001
43
0.0000000001
44
0.0000000001
40
0
40
0
40
0
40
1
40
1
40
1
10
237.16829997263278
20
-88.165782836377943
30
0
10
237.31015127859439
20
-88.165782836377943
30
0
10
237.40069460831012
20
-88.260852244794691
30
0
0
SPLINE
5
353
100
AcDbEntity
8
0
100
AcDbSpline
70
0
71
2
72
6
73
3
74
0
42
0.000000001
43
0.0000000001
44
0.0000000001
40
0
40
0
40
0
40
1
40
1
40
1
10
237.40069460831012
20
-88.260852244794691
30
0
10
237.49123764000262
20
-88.355922845304335
30
0
10
237.49123764000262
20
-88.530973342359388
30
0
0
SPLINE
5
354
100
AcDbEntity
8
0
100
AcDbSpline
70
0
71
2
72
6
73
3
74
0
42
0.000000001
43
0.0000000001
44
0.0000000001
40
0
40
0
40
0
40
1
40
1
40
1
10
237.49123764000262
20
-88.530973342359388
30
0
10
237.49123764000262
20
-88.657733348310316
30
0
10
237.41880309543933
20
-88.746768382490004
30
0
0
SPLINE
5
355
100
AcDbEntity
8
0
100
AcDbSpline
70
0
71
2
72
6
73
3
74
0
42
0.000000001
43
0.0000000001
44
0.0000000001
40
0
40
0
40
0
40
1
40
1
40
1
10
237.41880309543933
20
-88.746768382490004
30
0
10
237.34636855087604
20
-88.835802224576796
30
0
10
237.20149946174945
20
-88.950489905774916
30
0
0
SPLINE
5
356
100
AcDbEntity
8
0
100
AcDbSpline
70
0
71
2
72
6
73
3
74
0
42
0.000000001
43
0.0000000001
44
0.0000000001
40
0
40
0
40
0
40
1
40
1
40
1
10
237.20149946174945
20
-88.950489905774916
30
0
10
237.08077472410525
20
-89.044051316678846
30
0
10
237.00834017954196
20
-89.17081251472267
30
0
0
SPLINE
5
357
100
AcDbEntity
8
0
100
AcDbSpline
70
0
71
2
72
6
73
3
74
0
42
0.000000001
43
0.0000000001
44
0.0000000001
40
0
40
0
40
0
40
1
40
1
40
1
10
237.00834017954196
20
-89.17081251472267
30
0
10
236.93590563497867
20
-89.297572520673597
30
0
10
236.93590563497867
20
-89.514876750409925
30
0
0
SPLINE
5
358
100
AcDbEntity
8
0
100
AcDbSpline
70
0
71
2
72
6
73
3
74
0
42
0.000000001
43
0.0000000001
44
0.0000000001
40
0
40
0
40
0
40
1
40
1
40
1
10
236.93590563497867
20
-89.514876750409925
30
0
10
236.93590563497867
20
-89.73821654647621
30
0
10
237.03097593746509
20
-89.886104014814222
30
0
0
SPLINE
5
359
100
AcDbEntity
8
0
100
AcDbSpline
70
0
71
2
72
6
73
3
74
0
42
0.000000001
43
0.0000000001
44
0.0000000001
40
0
40
0
40
0
40
1
40
1
40
1
10
237.03097593746509
20
-89.886104014814222
30
0
10
237.12604653797473
20
-90.033991483152235
30
0
10
237.26789784393634
20
-90.033991483152235
30
0
0
SPLINE
5
360
100
AcDbEntity
8
0
100
AcDbSpline
70
0
71
2
72
6
73
3
74
0
42
0.000000001
43
0.0000000001
44
0.0000000001
40
0
40
0
40
0
40
1
40
1
40
1
10
237.26789784393634
20
-90.033991483152235
30
0
10
237.39767622909869
20
-90.033991483152235
30
0
10
237.48067450485553
20
-89.925339368284071
30
0
0
SPLINE
5
361
100
AcDbEntity
8
0
100
AcDbSpline
70
0
71
2
72
6
73
3
74
0
42
0.000000001
43
0.0000000001
44
0.0000000001
40
0
40
0
40
0
40
1
40
1
40
1
10
237.48067450485553
20
-89.925339368284071
30
0
10
237.56367218456592
20
-89.816687253415907
30
0
10
237.617998242
20
-89.632582810819471
30
0
0
SPLINE
5
362
100
AcDbEntity
8
0
100
AcDbSpline
70
0
71
2
72
6
73
3
74
0
42
0.000000001
43
0.0000000001
44
0.0000000001
40
0
40
0
40
0
40
1
40
1
40
1
10
237.617998242
20
-89.632582810819471
30
0
10
237.67232429943408
20
-89.448478368223036
30
0
10
237.75079500637378
20
-89.125540402829969
30
0
0
SPLINE
5
363
100
AcDbEntity
8
0
100
AcDbSpline
70
0
71
2
72
6
73
3
74
0
42
0.000000001
43
0.0000000001
44
0.0000000001
40
0
40
0
40
0
40
1
40
1
40
1
10
237.75079500637378
20
-89.125540402829969
30
0
10
237.84435641727771
20
-88.742240813672865
30
0
10
237.97413510046329
20
-88.499282744825209
30
0
0
SPLINE
5
364
100
AcDbEntity
8
0
100
AcDbSpline
70
0
71
2
72
6
73
3
74
0
42
0.000000001
43
0.0000000001
44
0.0000000001
40
0
40
0
40
0
40
1
40
1
40
1
10
237.97413510046329
20
-88.499282744825209
30
0
10
238.10391378364886
20
-88.256325868070448
30
0
10
238.28047317228641
20
-88.131073859632323
30
0
0
SPLINE
5
365
100
AcDbEntity
8
0
100
AcDbSpline
70
0
71
2
72
6
73
3
74
0
42
0.000000001
43
0.0000000001
44
0.0000000001
40
0
40
0
40
0
40
1
40
1
40
1
10
238.28047317228641
20
-88.131073859632323
30
0
10
238.45703256092395
20
-88.005823043287108
30
0
10
238.68339073620166
20
-88.005823043287108
30
0
0
ARC
5
366
100
AcDbEntity
8
0
100
AcDbCircle
10
250.76200000000139
20
-45.600000099052458
30
0
40
0.49999999999997158
210
-0
220
0
230
1
100
AcDbArc
50
0
51
89.999934767002202
0
ARC
5
367
100
AcDbEntity
8
0
100
AcDbCircle
10
258.76200000000006
20
-45.599999999999945
30
0
40
0.49999999999995381
210
0
220
-0
230
1
100
AcDbArc
50
90
51
180
0
ARC
5
368
100
AcDbEntity
8
0
100
AcDbCircle
10
274.63800000000003
20
-45.599999999999959
30
0
40
0.49999999999997158
210
-0
220
0
230
1
100
AcDbArc
50
0
51
90
0
ARC
5
369
100
AcDbEntity
8
0
100
AcDbCircle
10
282.63799999999998
20
-45.599999999999959
30
0
40
0.49999999999997158
210
0
220
-0
230
1
100
AcDbArc
50
90
51
180
0
LINE
5
370
100
AcDbEntity
8
0
100
AcDbLine
10
164.95000000000002
20
-7.2874999999999996
30
0
11
177.94999999999999
21
-7.2874999999999996
31
0
0
LINE
5
371
100
AcDbEntity
8
0
100
AcDbLine
10
178.44999999999999
20
-7.7875000000000005
30
0
11
178.44999999999999
21
-20.787500000000001
31
0
0
ARC
5
372
100
AcDbEntity
8
0
100
AcDbCircle
10
177.94999999999999
20
-7.7875000000000005
30
0
40
0.50000000000000711
210
0
220
0
230
1
100
AcDbArc
50
0
51
90
0
ARC
5
373
100
AcDbEntity
8
0
100
AcDbCircle
10
164.95000000000002
20
-20.787500000000001
30
0
40
0.50000000000000711
210
0
220
0
230
1
100
AcDbArc
50
180
51
270
0
LINE
5
374
100
AcDbEntity
8
0
100
AcDbLine
10
140.34999999999999
20
-7.7875000000000005
30
0
11
140.34999999999999
21
-20.787500000000001
31
0
0
LINE
5
375
100
AcDbEntity
8
0
100
AcDbLine
10
164.44999999999999
20
-7.7875000000000005
30
0
11
164.44999999999999
21
-20.787500000000001
31
0
0
ARC
5
376
100
AcDbEntity
8
0
100
AcDbCircle
10
164.95000000000002
20
-7.7875000000000005
30
0
40
0.50000000000000044
210
0
220
-0
230
1
100
AcDbArc
50
90
51
180
0
LWPOLYLINE
5
377
100
AcDbEntity
8
0
100
AcDbPolyline
90
8
70
1
43
0.0
10
326.08749999999992
20
-7.7875000000000005
10
326.08749999999992
20
-20.787500000000001
42
-0.41421356237309503
10
325.58749999999998
20
-21.287500000000001
10
312.58749999999998
20
-21.287500000000009
42
-0.41421356237309503
10
312.08749999999998
20
-20.787500000000001
10
312.08749999999998
20
-7.7875000000000005
42
-0.41421356237309503
10
312.58749999999998
20
-7.2874999999999996
10
325.58749999999998
20
-7.287500000000029
42
-0.41421356237309503
0
LWPOLYLINE
5
378
100
AcDbEntity
8
0
100
AcDbPolyline
90
8
70
1
43
0.0
10
293.03750000000002
20
-20.787500000000001
42
0.41421356237309503
10
293.53750000000002
20
-21.287500000000001
10
306.53750000000002
20
-21.287500000000001
42
0.41421356237309503
10
307.03750000000002
20
-20.787500000000001
10
307.03750000000002
20
-7.7875000000000005
42
0.41421356237309503
10
306.53750000000002
20
-7.2874999999999996
10
293.53750000000002
20
-7.2874999999999996
42
0.41421356237309503
10
293.03750000000002
20
-7.7875000000000005
0
LWPOLYLINE
5
379
100
AcDbEntity
8
0
100
AcDbPolyline
90
8
70
1
43
0.0
10
136.375
20
-121.30000000000001
10
149.375
20
-121.30000000000001
42
0.41421356237309503
10
149.875
20
-120.8
10
149.875
20
-107.80000000000001
42
0.41421356237309503
10
149.375
20
-107.30000000000001
10
136.375
20
-107.30000000000001
42
0.41421356237309503
10
135.875
20
-107.80000000000001
10
135.875
20
-120.8
42
0.41421356237309503
0
LWPOLYLINE
5
380
100
AcDbEntity
8
0
100
AcDbPolyline
90
8
70
1
43
0.0
10
226.36250000000001
20
-20.787500000000001
42
0.41421356237309503
10
226.86250000000001
20
-21.287500000000001
10
239.86250000000001
20
-21.287500000000001
42
0.41421356237309503
10
240.36250000000001
20
-20.787500000000001
10
240.36250000000001
20
-7.7875000000000005
42
0.41421356237309503
10
239.86250000000001
20
-7.2874999999999996
10
226.86250000000001
20
-7.2874999999999996
42
0.41421356237309503
10
226.36250000000001
20
-7.7875000000000005
0
LWPOLYLINE
5
381
100
AcDbEntity
8
0
100
AcDbPolyline
90
8
70
1
43
0.0
10
207.8125
20
-7.2874999999999996
10
220.8125
20
-7.2874999999999934
42
-0.41421356237309503
10
221.3125
20
-7.7875000000000005
10
221.3125
20
-20.787500000000001
42
-0.41421356237309503
10
220.8125
20
-21.287500000000001
10
207.8125
20
-21.287500000000009
42
-0.41421356237309503
10
207.3125
20
-20.787500000000001
10
207.3125
20
-7.7875000000000005
42
-0.41421356237309503
0
LWPOLYLINE
5
382
100
AcDbEntity
8
0
100
AcDbPolyline
90
8
70
1
43
0.0
10
259.41250000000002
20
-7.7875000000000005
42
0.41421356237309503
10
258.91250000000002
20
-7.2874999999999996
10
245.91250000000002
20
-7.2874999999999996
42
0.41421356237309503
10
245.41250000000002
20
-7.7875000000000005
10
245.41250000000002
20
-20.787500000000001
42
0.41421356237309503
10
245.91250000000002
20
-21.287500000000001
10
258.91250000000002
20
-21.287500000000001
42
0.41421356237309503
10
259.41250000000002
20
-20.787500000000001
0
ARC
5
383
100
AcDbEntity
8
0
100
AcDbCircle
10
64.9375
20
-7.7875000000000005
30
0
40
0.50000000000000044
210
0
220
-0
230
1
100
AcDbArc
50
90
51
180
0
LINE
5
384
100
AcDbEntity
8
0
100
AcDbLine
10
45.887500000000003
20
-7.2874999999999996
30
0
11
58.88750000000001
21
-7.2874999999999996
31
0
0
ARC
5
385
100
AcDbEntity
8
0
100
AcDbCircle
10
58.88750000000001
20
-7.7875000000000005
30
0
40
0.49999999999999822
210
0
220
0
230
1
100
AcDbArc
50
0
51
90
0
LINE
5
386
100
AcDbEntity
8
0
100
AcDbLine
10
3.0249999999999999
20
-7.2874999999999996
30
0
11
16.024999999999999
21
-7.2874999999999996
31
0
0
ARC
5
387
100
AcDbEntity
8
0
100
AcDbCircle
10
58.88750000000001
20
-20.787500000000001
30
0
40
0.49999999999999822
210
0
220
0
230
1
100
AcDbArc
50
-90
51
0
0
LINE
5
388
100
AcDbEntity
8
0
100
AcDbLine
10
64.9375
20
-21.287500000000001
30
0
11
77.9375
21
-21.287500000000001
31
0
0
LINE
5
389
100
AcDbEntity
8
0
100
AcDbLine
10
45.387500000000003
20
-7.7875000000000005
30
0
11
45.387500000000003
21
-20.787500000000001
31
0
0
ARC
5
390
100
AcDbEntity
8
0
100
AcDbCircle
10
83.987499999999997
20
-20.787500000000001
30
0
40
0.49999999999998934
210
0
220
0
230
1
100
AcDbArc
50
180
51
270
0
ARC
5
391
100
AcDbEntity
8
0
100
AcDbCircle
10
3.0249999999999999
20
-7.7875000000000005
30
0
40
0.50000000000000044
210
0
220
-0
230
1
100
AcDbArc
50
90
51
180
0
ARC
5
392
100
AcDbEntity
8
0
100
AcDbCircle
10
83.987499999999997
20
-7.7875000000000005
30
0
40
0.50000000000000044
210
0
220
-0
230
1
100
AcDbArc
50
90
51
180
0
ARC
5
393
100
AcDbEntity
8
0
100
AcDbCircle
10
26.837499999999999
20
-20.787500000000001
30
0
40
0.49999999999999822
210
0
220
0
230
1
100
AcDbArc
50
180
51
270
0
ARC
5
394
100
AcDbEntity
8
0
100
AcDbCircle
10
16.024999999999999
20
-7.7875000000000005
30
0
40
0.50000000000000044
210
0
220
0
230
1
100
AcDbArc
50
0
51
90
0
LWPOLYLINE
5
395
100
AcDbEntity
8
0
100
AcDbPolyline
90
8
70
1
43
0.0
10
269.72500000000002
20
-21.287500000000001
10
282.72500000000002
20
-21.287500000000001
42
0.41421356237309503
10
283.22500000000002
20
-20.787500000000001
10
283.22500000000002
20
-7.7875000000000005
42
0.41421356237309503
10
282.72500000000002
20
-7.2874999999999996
10
269.72500000000002
20
-7.2874999999999996
42
0.41421356237309503
10
269.22500000000002
20
-7.7875000000000005
10
269.22500000000002
20
-20.787500000000001
42
0.41421356237309503
0
LINE
5
396
100
AcDbEntity
8
0
100
AcDbLine
10
64.4375
20
-7.7875000000000005
30
0
11
64.4375
21
-20.787500000000001
31
0
0
ARC
5
397
100
AcDbEntity
8
0
100
AcDbCircle
10
39.837499999999999
20
-7.7875000000000005
30
0
40
0.50000000000000266
210
0
220
0
230
1
100
AcDbArc
50
0
51
90
0
LINE
5
398
100
AcDbEntity
8
0
100
AcDbLine
10
3.0249999999999999
20
-21.287500000000001
30
0
11
16.024999999999999
21
-21.287500000000001
31
0
0
LINE
5
399
100
AcDbEntity
8
0
100
AcDbLine
10
26.837499999999999
20
-21.287500000000001
30
0
11
39.837499999999999
21
-21.287500000000001
31
0
0
ARC
5
400
100
AcDbEntity
8
0
100
AcDbCircle
10
139.84999999999999
20
-20.787500000000001
30
0
40
0.49999999999999822
210
0
220
0
230
1
100
AcDbArc
50
-90
51
0
0
LINE
5
401
100
AcDbEntity
8
0
100
AcDbLine
10
145.40000000000001
20
-7.7875000000000005
30
0
11
145.40000000000001
21
-20.787500000000001
31
0
0
LINE
5
402
100
AcDbEntity
8
0
100
AcDbLine
10
159.40000000000001
20
-7.7875000000000005
30
0
11
159.40000000000001
21
-20.787500000000001
31
0
0
ARC
5
403
100
AcDbEntity
8
0
100
AcDbCircle
10
158.90000000000001
20
-20.787500000000001
30
0
40
0.49999999999999822
210
0
220
0
230
1
100
AcDbArc
50
-90
51
0
0
ARC
5
404
100
AcDbEntity
8
0
100
AcDbCircle
10
177.94999999999999
20
-20.787500000000001
30
0
40
0.49999999999999822
210
0
220
0
230
1
100
AcDbArc
50
-90
51
0
0
ARC
5
405
100
AcDbEntity
8
0
100
AcDbCircle
10
145.90000000000001
20
-7.7875000000000005
30
0
40
0.50000000000000044
210
0
220
-0
230
1
100
AcDbArc
50
90
51
180
0
ARC
5
406
100
AcDbEntity
8
0
100
AcDbCircle
10
145.90000000000001
20
-20.787500000000001
30
0
40
0.50000000000000711
210
0
220
0
230
1
100
AcDbArc
50
180
51
270
0
LINE
5
407
100
AcDbEntity
8
0
100
AcDbLine
10
164.95000000000002
20
-21.287500000000001
30
0
11
177.94999999999999
21
-21.287500000000001
31
0
0
ARC
5
408
100
AcDbEntity
8
0
100
AcDbCircle
10
158.90000000000001
20
-7.7875000000000005
30
0
40
0.50000000000000711
210
0
220
0
230
1
100
AcDbArc
50
0
51
90
0
LINE
5
409
100
AcDbEntity
8
0
100
AcDbLine
10
145.90000000000001
20
-7.2874999999999996
30
0
11
158.90000000000001
21
-7.2874999999999996
31
0
0
LINE
5
410
100
AcDbEntity
8
0
100
AcDbLine
10
145.90000000000001
20
-21.287500000000001
30
0
11
158.90000000000001
21
-21.287500000000001
31
0
0
ARC
5
411
100
AcDbEntity
8
0
100
AcDbCircle
10
139.84999999999999
20
-7.7875000000000005
30
0
40
0.50000000000000711
210
0
220
0
230
1
100
AcDbArc
50
0
51
90
0
LINE
5
412
100
AcDbEntity
8
0
100
AcDbLine
10
78.4375
20
-7.7875000000000005
30
0
11
78.4375
21
-20.787500000000001
31
0
0
LINE
5
413
100
AcDbEntity
8
0
100
AcDbLine
10
107.80000000000001
20
-7.2874999999999996
30
0
11
120.8
21
-7.2874999999999996
31
0
0
LWPOLYLINE
5
414
100
AcDbEntity
8
0
100
AcDbPolyline
90
8
70
1
43
0.0
10
188.26249999999999
20
-20.787500000000001
42
0.41421356237309503
10
188.76249999999999
20
-21.287500000000001
10
201.76249999999999
20
-21.287500000000001
42
0.41421356237309503
10
202.26249999999999
20
-20.787500000000001
10
202.26249999999999
20
-7.7875000000000005
42
0.41421356237309503
10
201.76249999999999
20
-7.2874999999999996
10
188.76249999999999
20
-7.2874999999999996
42
0.41421356237309503
10
188.26249999999999
20
-7.7875000000000005
0
LINE
5
415
100
AcDbEntity
8
0
100
AcDbLine
10
64.9375
20
-7.2874999999999996
30
0
11
77.9375
21
-7.2874999999999996
31
0
0
LINE
5
416
100
AcDbEntity
8
0
100
AcDbLine
10
107.80000000000001
20
-21.287500000000001
30
0
11
120.8
21
-21.287500000000001
31
0
0
ARC
5
417
100
AcDbEntity
8
0
100
AcDbCircle
10
77.9375
20
-20.787500000000001
30
0
40
0.49999999999999822
210
0
220
0
230
1
100
AcDbArc
50
-90
51
0
0
LINE
5
418
100
AcDbEntity
8
0
100
AcDbLine
10
126.85000000000001
20
-7.2874999999999996
30
0
11
139.84999999999999
21
-7.2874999999999996
31
0
0
ARC
5
419
100
AcDbEntity
8
0
100
AcDbCircle
10
64.9375
20
-20.787500000000001
30
0
40
0.49999999999999822
210
0
220
0
230
1
100
AcDbArc
50
180
51
270
0
LINE
5
420
100
AcDbEntity
8
0
100
AcDbLine
10
126.85000000000001
20
-21.287500000000001
30
0
11
139.84999999999999
21
-21.287500000000001
31
0
0
LINE
5
421
100
AcDbEntity
8
0
100
AcDbLine
10
83.487500000000011
20
-7.7875000000000005
30
0
11
83.487500000000011
21
-20.787500000000001
31
0
0
ARC
5
422
100
AcDbEntity
8
0
100
AcDbCircle
10
77.9375
20
-7.7875000000000005
30
0
40
0.49999999999999822
210
0
220
0
230
1
100
AcDbArc
50
0
51
90
0
LINE
5
423
100
AcDbEntity
8
0
100
AcDbLine
10
40.337500000000006
20
-7.7875000000000005
30
0
11
40.337500000000006
21
-20.787500000000001
31
0
0
ARC
5
424
100
AcDbEntity
8
0
100
AcDbCircle
10
26.837499999999999
20
-7.7875000000000005
30
0
40
0.50000000000000044
210
0
220
-0
230
1
100
AcDbArc
50
90
51
180
0
LINE
5
425
100
AcDbEntity
8
0
100
AcDbLine
10
2.5249999999999999
20
-7.7875000000000005
30
0
11
2.5249999999999999
21
-20.787500000000001
31
0
0
ARC
5
426
100
AcDbEntity
8
0
100
AcDbCircle
10
3.0249999999999999
20
-20.787500000000001
30
0
40
0.49999999999999989
210
0
220
0
230
1
100
AcDbArc
50
180
51
270
0
LINE
5
427
100
AcDbEntity
8
0
100
AcDbLine
10
26.337499999999999
20
-7.7875000000000005
30
0
11
26.337499999999999
21
-20.787500000000001
31
0
0
ARC
5
428
100
AcDbEntity
8
0
100
AcDbCircle
10
16.024999999999999
20
-20.787500000000001
30
0
40
0.49999999999999822
210
0
220
0
230
1
100
AcDbArc
50
-90
51
0
0
LINE
5
429
100
AcDbEntity
8
0
100
AcDbLine
10
16.525000000000002
20
-7.7875000000000005
30
0
11
16.525000000000002
21
-20.787500000000001
31
0
0
ARC
5
430
100
AcDbEntity
8
0
100
AcDbCircle
10
39.837499999999999
20
-20.787500000000001
30
0
40
0.49999999999999822
210
0
220
0
230
1
100
AcDbArc
50
-90
51
0
0
LINE
5
431
100
AcDbEntity
8
0
100
AcDbLine
10
26.837499999999999
20
-7.2874999999999996
30
0
11
39.837499999999999
21
-7.2874999999999996
31
0
0
LINE
5
432
100
AcDbEntity
8
0
100
AcDbLine
10
107.30000000000001
20
-7.7875000000000005
30
0
11
107.30000000000001
21
-20.787500000000001
31
0
0
ARC
5
433
100
AcDbEntity
8
0
100
AcDbCircle
10
107.80000000000001
20
-20.787500000000001
30
0
40
0.50000000000000711
210
0
220
0
230
1
100
AcDbArc
50
180
51
270
0
LINE
5
434
100
AcDbEntity
8
0
100
AcDbLine
10
97.487500000000011
20
-7.7875000000000005
30
0
11
97.487500000000011
21
-20.787500000000001
31
0
0
ARC
5
435
100
AcDbEntity
8
0
100
AcDbCircle
10
96.987500000000011
20
-7.7875000000000005
30
0
40
0.50000000000000711
210
0
220
0
230
1
100
AcDbArc
50
0
51
90
0
LINE
5
436
100
AcDbEntity
8
0
100
AcDbLine
10
83.987499999999997
20
-7.2874999999999996
30
0
11
96.987500000000011
21
-7.2874999999999996
31
0
0
ARC
5
437
100
AcDbEntity
8
0
100
AcDbCircle
10
96.987500000000011
20
-20.787500000000001
30
0
40
0.49999999999999822
210
0
220
0
230
1
100
AcDbArc
50
-90
51
0
0
ARC
5
438
100
AcDbEntity
8
0
100
AcDbCircle
10
96.987500000000011
20
-7.7875000000000005
30
0
40
0.50000000000000711
210
0
220
0
230
1
100
AcDbArc
50
0
51
90
0
ARC
5
439
100
AcDbEntity
8
0
100
AcDbCircle
10
107.80000000000001
20
-7.7875000000000005
30
0
40
0.50000000000000044
210
0
220
-0
230
1
100
AcDbArc
50
90
51
180
0
ARC
5
440
100
AcDbEntity
8
0
100
AcDbCircle
10
96.987500000000011
20
-7.7875000000000005
30
0
40
0.50000000000000711
210
0
220
0
230
1
100
AcDbArc
50
0
51
90
0
ARC
5
441
100
AcDbEntity
8
0
100
AcDbCircle
10
126.85000000000001
20
-20.787500000000001
30
0
40
0.50000000000000711
210
0
220
0
230
1
100
AcDbArc
50
180
51
270
0
LINE
5
442
100
AcDbEntity
8
0
100
AcDbLine
10
121.30000000000001
20
-7.7875000000000005
30
0
11
121.30000000000001
21
-20.787500000000001
31
0
0
LINE
5
443
100
AcDbEntity
8
0
100
AcDbLine
10
83.987499999999997
20
-21.287500000000001
30
0
11
96.987500000000011
21
-21.287500000000001
31
0
0
LINE
5
444
100
AcDbEntity
8
0
100
AcDbLine
10
126.34999999999999
20
-7.7875000000000005
30
0
11
126.34999999999999
21
-20.787500000000001
31
0
0
ARC
5
445
100
AcDbEntity
8
0
100
AcDbCircle
10
120.8
20
-20.787500000000001
30
0
40
0.49999999999999822
210
0
220
0
230
1
100
AcDbArc
50
-90
51
0
0
ARC
5
446
100
AcDbEntity
8
0
100
AcDbCircle
10
120.8
20
-7.7875000000000005
30
0
40
0.50000000000000711
210
0
220
0
230
1
100
AcDbArc
50
0
51
90
0
ARC
5
447
100
AcDbEntity
8
0
100
AcDbCircle
10
126.85000000000001
20
-7.7875000000000005
30
0
40
0.50000000000000044
210
0
220
-0
230
1
100
AcDbArc
50
90
51
180
0
ARC
5
448
100
AcDbEntity
8
0
100
AcDbCircle
10
45.887500000000003
20
-20.787500000000001
30
0
40
0.49999999999999822
210
0
220
0
230
1
100
AcDbArc
50
180
51
270
0
ARC
5
449
100
AcDbEntity
8
0
100
AcDbCircle
10
58.88750000000001
20
-7.7875000000000005
30
0
40
0.49999999999999822
210
0
220
0
230
1
100
AcDbArc
50
0
51
90
0
LWPOLYLINE
5
450
100
AcDbEntity
8
0
100
AcDbPolyline
90
8
70
1
43
0.0
10
345.13749999999993
20
-7.7875000000000005
42
0.41421356237309503
10
344.63749999999999
20
-7.2874999999999996
10
331.63749999999999
20
-7.2874999999999996
42
0.41421356237309503
10
331.13750000000005
20
-7.7875000000000005
10
331.13750000000005
20
-20.787500000000001
42
0.41421356237309503
10
331.63749999999999
20
-21.287500000000001
10
344.63749999999999
20
-21.287500000000001
42
0.41421356237309503
10
345.13749999999993
20
-20.787500000000001
0
LINE
5
451
100
AcDbEntity
8
0
100
AcDbLine
10
45.887500000000003
20
-21.287500000000001
30
0
11
58.88750000000001
21
-21.287500000000001
31
0
0
ARC
5
452
100
AcDbEntity
8
0
100
AcDbCircle
10
45.887500000000003
20
-20.787500000000001
30
0
40
0.49999999999999822
210
0
220
0
230
1
100
AcDbArc
50
180
51
270
0
LINE
5
453
100
AcDbEntity
8
0
100
AcDbLine
10
59.387500000000003
20
-7.7875000000000005
30
0
11
59.387500000000003
21
-20.787500000000001
31
0
0
ARC
5
454
100
AcDbEntity
8
0
100
AcDbCircle
10
45.887500000000003
20
-20.787500000000001
30
0
40
0.49999999999999822
210
0
220
0
230
1
100
AcDbArc
50
180
51
270
0
ARC
5
455
100
AcDbEntity
8
0
100
AcDbCircle
10
58.88750000000001
20
-7.7875000000000005
30
0
40
0.49999999999999822
210
0
220
0
230
1
100
AcDbArc
50
0
51
90
0
ARC
5
456
100
AcDbEntity
8
0
100
AcDbCircle
10
45.887500000000003
20
-7.7875000000000005
30
0
40
0.50000000000000044
210
0
220
-0
230
1
100
AcDbArc
50
90
51
180
0
LWPOLYLINE
5
457
100
AcDbEntity
8
0
100
AcDbPolyline
90
8
70
1
43
0.0
10
3.0249999999999999
20
-25.287500000000001
10
344.63750000000005
20
-25.287499999999987
42
-0.41421356237316009
10
345.13749999999993
20
-25.787499999999998
10
345.13749999999993
20
-26.600000000000005
42
-0.41421356237325374
10
344.63749999999999
20
-27.099999999999966
10
3.0250000000000199
20
-27.100000000000005
42
-0.41421356237310802
10
2.5249999999999995
20
-26.600000000000005
10
2.524999999999999
20
-25.787499999999998
42
-0.41421356237309664
0
ENDSEC
0
SECTION
2
OBJECTS
0
DICTIONARY
5
C
100
AcDbDictionary
3
ACAD_GROUP
350
D
3
ACAD_MLINESTYLE
350
17
0
DICTIONARY
5
D
100
AcDbDictionary
0
DICTIONARY
5
1A
330
C
100
AcDbDictionary
0
DICTIONARY
5
17
100
AcDbDictionary
0
ENDSEC
0
EOF
